<svg
                width="21"
                height="25"
                viewBox="0 0 21 25"
                fill="none"
                xmlns="http://www.w3.org/2000/svg"
              >
                <path
                  d="M2.44449 8.5835C1.63867 8.5831 0.98555 9.23782 0.985352 10.043L0.986345 16.154C0.986215 16.3457 1.02388 16.5356 1.09719 16.7128C1.1705 16.8899 1.27802 17.0509 1.41359 17.1865C1.54916 17.3221 1.71013 17.4296 1.88729 17.503C2.06446 17.5763 2.25434 17.614 2.44608 17.6139C2.63779 17.6141 2.82767 17.5765 3.00482 17.5032C3.18197 17.4299 3.34292 17.3224 3.47845 17.1868C3.61398 17.0512 3.72142 16.8901 3.79462 16.713C3.86781 16.5358 3.90533 16.3459 3.90502 16.1542V10.0422C3.90459 9.65518 3.75053 9.28412 3.47666 9.01059C3.2028 8.73706 2.83155 8.58345 2.44449 8.5835ZM14.2132 3.09569L15.2318 1.23573C15.2577 1.18855 15.2639 1.133 15.2489 1.08127C15.234 1.02954 15.1991 0.985845 15.152 0.959769C15.1048 0.934239 15.0494 0.928419 14.998 0.94358C14.9465 0.95874 14.9031 0.99365 14.8773 1.04069L13.8484 2.92013C12.9827 2.53482 12.0139 2.3189 10.9888 2.31989C9.96643 2.3189 8.99798 2.53422 8.1359 2.91735L7.10581 1.04268C7.09324 1.01928 7.07614 0.998603 7.05552 0.981856C7.0349 0.965109 7.01116 0.952619 6.98568 0.945111C6.9602 0.937604 6.93348 0.935226 6.90707 0.938118C6.88066 0.941009 6.85509 0.949112 6.83184 0.961956C6.80836 0.974504 6.78762 0.991609 6.77083 1.01227C6.75405 1.03293 6.74155 1.05673 6.73407 1.08228C6.72659 1.10782 6.72428 1.13461 6.72727 1.16106C6.73027 1.18751 6.73851 1.2131 6.75151 1.23633L7.77046 3.09509C5.76835 4.12756 4.41558 6.09388 4.41678 8.35148L17.5623 8.34989C17.5627 6.09309 16.2123 4.13074 14.2132 3.09569ZM7.99891 5.97002C7.85271 5.96994 7.71254 5.91179 7.60922 5.80836C7.5059 5.70493 7.4479 5.56469 7.44798 5.4185C7.44806 5.2723 7.50621 5.13213 7.60964 5.02881C7.71307 4.92549 7.85331 4.86749 7.9995 4.86757C8.14572 4.86783 8.28587 4.92601 8.38927 5.02938C8.49268 5.13275 8.55091 5.27288 8.55123 5.41909C8.55097 5.56537 8.49265 5.70556 8.38908 5.80886C8.28552 5.91216 8.14518 5.97013 7.99891 5.97002ZM13.9846 5.96903C13.9122 5.96908 13.8405 5.95487 13.7736 5.9272C13.7068 5.89953 13.646 5.85896 13.5948 5.80779C13.5436 5.75663 13.503 5.69587 13.4753 5.62901C13.4477 5.56214 13.4334 5.49047 13.4334 5.4181C13.4342 5.27203 13.4925 5.13214 13.5957 5.02876C13.6989 4.92538 13.8387 4.86682 13.9848 4.86578C14.1307 4.86698 14.2703 4.92565 14.3733 5.02908C14.4763 5.1325 14.5343 5.27235 14.5349 5.4183C14.535 5.49061 14.5208 5.56223 14.4932 5.62905C14.4656 5.69588 14.425 5.75661 14.3739 5.80776C14.3228 5.85891 14.2621 5.89948 14.1953 5.92715C14.1285 5.95482 14.0569 5.96905 13.9846 5.96903ZM4.47046 8.85927L4.47265 18.33C4.47241 18.5346 4.51253 18.7372 4.5907 18.9262C4.66887 19.1152 4.78357 19.2869 4.92821 19.4316C5.07286 19.5762 5.24461 19.6909 5.43364 19.769C5.62267 19.8472 5.82525 19.8873 6.0298 19.887L7.0901 19.8874L7.0913 23.121C7.0911 23.9262 7.74561 24.5807 8.54964 24.5807C9.35605 24.5807 10.0094 23.9256 10.0096 23.12L10.0088 19.8872L11.9789 19.8866L11.9797 23.12C11.9797 23.9246 12.6344 24.5805 13.4386 24.5789C14.245 24.5795 14.8987 23.9244 14.8985 23.1188L14.8975 19.8862L15.9616 19.8854C16.1662 19.8854 16.3688 19.8452 16.5578 19.7669C16.7468 19.6886 16.9185 19.5739 17.0632 19.4293C17.2079 19.2847 17.3226 19.1129 17.4009 18.924C17.4792 18.735 17.5196 18.5324 17.5196 18.3278L17.5178 8.85708L4.47046 8.85927ZM20.9991 10.0408C20.9991 9.84919 20.9614 9.65941 20.8881 9.48234C20.8147 9.30527 20.7072 9.14439 20.5717 9.00889C20.4361 8.87338 20.2752 8.76591 20.0981 8.69262C19.921 8.61932 19.7312 8.58163 19.5396 8.58171C18.7338 8.58092 18.0808 9.23523 18.0808 10.0414L18.082 16.1528C18.0819 16.3444 18.1196 16.5342 18.1928 16.7113C18.2661 16.8884 18.3736 17.0493 18.5091 17.1848C18.6446 17.3203 18.8055 17.4278 18.9826 17.5011C19.1597 17.5744 19.3495 17.612 19.5412 17.6119C19.7329 17.6119 19.9227 17.5742 20.0997 17.5008C20.2768 17.4274 20.4377 17.3199 20.5732 17.1843C20.7087 17.0487 20.8161 16.8877 20.8894 16.7106C20.9626 16.5335 21.0003 16.3436 21.0001 16.152L20.9991 10.0408Z"
                  fill="white"
                />
              </svg>