 <svg
                  width="93"
                  height="93"
                  viewBox="0 0 93 93"
                  fill="none"
                  xmlns="http://www.w3.org/2000/svg"
                >
                  <g
                    clip-path="url(#clip0_138_4909)"
                    filter="url(#filter0_d_138_4909)"
                  >
                    <path
                      d="M5.80007 42.9043C5.79809 49.9912 7.66431 56.9111 11.2129 63.0104L5.46069 83.8498L26.9538 78.2579C32.8985 81.4691 39.5592 83.1517 46.3277 83.1521H46.3455C68.6897 83.1521 86.8784 65.1109 86.8879 42.936C86.8922 32.1907 82.6787 22.0865 75.0234 14.4846C67.3694 6.88343 57.1899 2.69509 46.3438 2.69019C23.997 2.69019 5.80962 20.7304 5.8004 42.9043"
                      fill="url(#paint0_linear_138_4909)"
                    />
                    <path
                      d="M4.35255 42.8912C4.35025 50.2331 6.28335 57.4005 9.95845 63.7181L4 85.3046L26.2638 79.5123C32.3982 82.831 39.3049 84.5807 46.3329 84.5833H46.351C69.4969 84.5833 88.3389 65.8932 88.3488 42.9245C88.3528 31.7931 83.9877 21.3257 76.0589 13.4515C68.1292 5.57826 57.5855 1.2392 46.351 1.23462C23.2012 1.23462 4.36178 19.9221 4.35255 42.8912ZM17.6115 62.6301L16.7802 61.3207C13.2856 55.8073 11.4411 49.436 11.4438 42.8938C11.451 23.8025 27.1096 8.27023 46.3642 8.27023C55.6887 8.27415 64.4517 11.8809 71.0428 18.4248C77.6336 24.9693 81.2602 33.669 81.2579 42.9219C81.2494 62.0132 65.5905 77.5474 46.351 77.5474H46.3372C40.0726 77.5441 33.9287 75.8748 28.5705 72.7202L27.2954 71.9699L14.0836 75.407L17.6115 62.6301Z"
                      fill="url(#paint1_linear_138_4909)"
                    />
                    <path
                      d="M35.8542 25.4762C35.068 23.7424 34.2407 23.7075 33.4931 23.6771C32.8809 23.6509 32.181 23.6529 31.4819 23.6529C30.782 23.6529 29.645 23.9141 28.6839 24.9554C27.7218 25.9976 25.0107 28.5163 25.0107 33.639C25.0107 38.7621 28.7712 43.7128 29.2954 44.4082C29.8203 45.1023 36.555 55.9513 47.2212 60.1249C56.0857 63.5933 57.8896 62.9035 59.8135 62.7296C61.7377 62.5563 66.0224 60.2115 66.8965 57.7801C67.7713 55.3491 67.7713 53.2652 67.509 52.8297C67.2468 52.3959 66.5469 52.1353 65.4975 51.6148C64.4478 51.094 59.2886 48.575 58.3269 48.2275C57.3648 47.8803 56.6653 47.707 55.9654 48.7496C55.2656 49.7905 53.2561 52.1353 52.6435 52.8297C52.0317 53.5258 51.4192 53.6124 50.3701 53.0916C49.32 52.5691 45.9405 51.471 41.9309 47.9241C38.8113 45.1641 36.7052 41.7558 36.0931 40.7132C35.4809 39.6723 36.0275 39.108 36.5537 38.5891C37.0252 38.1226 37.6034 37.3733 38.1286 36.7655C38.6519 36.1574 38.8265 35.7236 39.1764 35.0292C39.5266 34.3341 39.3514 33.726 39.0894 33.2052C38.8265 32.6844 36.7873 27.5349 35.8542 25.4762Z"
                      fill="white"
                    />
                  </g>
                  <defs>
                    <filter
                      id="filter0_d_138_4909"
                      x="0"
                      y="0.234619"
                      width="92.3489"
                      height="92.3489"
                      filterUnits="userSpaceOnUse"
                      color-interpolation-filters="sRGB"
                    >
                      <feFlood flood-opacity="0" result="BackgroundImageFix" />
                      <feColorMatrix
                        in="SourceAlpha"
                        type="matrix"
                        values="0 0 0 0 0 0 0 0 0 0 0 0 0 0 0 0 0 0 127 0"
                        result="hardAlpha"
                      />
                      <feOffset dy="3" />
                      <feGaussianBlur stdDeviation="2" />
                      <feComposite in2="hardAlpha" operator="out" />
                      <feColorMatrix
                        type="matrix"
                        values="0 0 0 0 0 0 0 0 0 0 0 0 0 0 0 0 0 0 0.25 0"
                      />
                      <feBlend
                        mode="normal"
                        in2="BackgroundImageFix"
                        result="effect1_dropShadow_138_4909"
                      />
                      <feBlend
                        mode="normal"
                        in="SourceGraphic"
                        in2="effect1_dropShadow_138_4909"
                        result="shape"
                      />
                    </filter>
                    <linearGradient
                      id="paint0_linear_138_4909"
                      x1="4076.82"
                      y1="8118.65"
                      x2="4076.82"
                      y2="2.69019"
                      gradientUnits="userSpaceOnUse"
                    >
                      <stop stop-color="#1FAF38" />
                      <stop offset="1" stop-color="#60D669" />
                    </linearGradient>
                    <linearGradient
                      id="paint1_linear_138_4909"
                      x1="4221.44"
                      y1="8408.23"
                      x2="4221.44"
                      y2="1.23462"
                      gradientUnits="userSpaceOnUse"
                    >
                      <stop stop-color="#F9F9F9" />
                      <stop offset="1" stop-color="white" />
                    </linearGradient>
                    <clipPath id="clip0_138_4909">
                      <rect
                        width="84.3488"
                        height="84.3488"
                        fill="white"
                        transform="translate(4 1.23462)"
                      />
                    </clipPath>
                  </defs>
                </svg>