<svg
                  width="93"
                  height="93"
                  viewBox="0 0 93 93"
                  fill="none"
                  xmlns="http://www.w3.org/2000/svg"
                >
                  <g
                    clip-path="url(#clip0_138_4905)"
                    filter="url(#filter0_d_138_4905)"
                  >
                    <path
                      d="M46.8255 85.5834C70.1178 85.5834 88.9999 66.7013 88.9999 43.409C88.9999 20.1167 70.1178 1.23462 46.8255 1.23462C23.5332 1.23462 4.65112 20.1167 4.65112 43.409C4.65112 66.7013 23.5332 85.5834 46.8255 85.5834Z"
                      fill="#E6A500"
                    />
                    <path
                      fill-rule="evenodd"
                      clip-rule="evenodd"
                      d="M47.5636 62.717C49.4184 62.5881 51.2573 62.288 53.0568 61.8207C55.2776 62.4984 57.6253 62.6518 59.9154 62.2688C60.0061 62.2542 60.0978 62.2472 60.1896 62.2478C61.0067 62.2478 62.0795 62.7222 63.6426 63.7239V62.0764C63.6429 61.7914 63.719 61.5116 63.8631 61.2657C64.0071 61.0197 64.2139 60.8165 64.4624 60.6768C65.1424 60.2919 65.775 59.8491 66.3523 59.3614C68.6297 57.432 69.916 54.8593 69.916 52.1338C69.916 51.2192 69.7711 50.3309 69.4969 49.4821C70.1849 48.1984 70.7411 46.8488 71.1497 45.4492C72.4706 47.4287 73.1785 49.754 73.1846 52.1338C73.1846 55.8372 71.4607 59.2903 68.4795 61.8155C67.9819 62.2366 67.458 62.6258 66.9111 62.9805V66.8316C66.9111 68.1574 65.3823 68.9192 64.3042 68.1311C63.2848 67.369 62.2292 66.6565 61.1411 65.996C60.8296 65.8095 60.5054 65.6448 60.1711 65.5031C59.2749 65.6375 58.3576 65.7061 57.4324 65.7061C53.7105 65.7061 50.2707 64.5911 47.5636 62.717ZM27.884 55.0148C23.1815 51.0267 20.4666 45.5941 20.4666 39.7714C20.4666 27.8756 31.6902 18.3679 45.3943 18.3679C59.1009 18.3679 70.3246 27.8756 70.3246 39.7714C70.3246 51.6699 59.0983 61.1776 45.3943 61.1776C43.8549 61.1776 42.3313 61.059 40.8394 60.8217C40.1936 60.9746 37.6131 62.5087 33.8938 65.2237C32.5469 66.2095 30.6359 65.258 30.6359 63.6V57.0313C29.6727 56.4241 28.7532 55.7503 27.884 55.0148ZM40.929 56.7704C41.0424 56.7704 41.1584 56.7783 41.2717 56.7967C42.616 57.0234 43.9972 57.1394 45.3943 57.1394C56.9711 57.1394 66.2363 49.2897 66.2363 39.7714C66.2363 30.2558 56.9711 22.4061 45.3943 22.4061C33.8227 22.4061 24.5522 30.2558 24.5522 39.7714C24.5522 44.3737 26.7163 48.7071 30.5436 51.9493C31.5057 52.7612 32.5627 53.4992 33.6961 54.1424C34.3314 54.5008 34.7241 55.1704 34.7241 55.8926V59.6804C37.6658 57.7061 39.6006 56.7704 40.929 56.7704ZM34.7689 43.8123C32.9634 43.8123 31.5004 42.3625 31.5004 40.5807C31.5004 38.7962 32.9634 37.349 34.7689 37.349C36.5745 37.349 38.0375 38.7962 38.0375 40.5807C38.0375 42.3652 36.5745 43.8123 34.7689 43.8123ZM45.3943 43.8123C43.5887 43.8123 42.1257 42.3625 42.1257 40.5807C42.1257 38.7962 43.5887 37.349 45.3943 37.349C47.1999 37.349 48.6628 38.7962 48.6628 40.5807C48.6628 42.3652 47.1999 43.8123 45.3943 43.8123ZM56.0196 43.8123C54.214 43.8123 52.7511 42.3625 52.7511 40.5807C52.7511 38.7962 54.214 37.349 56.0196 37.349C57.8252 37.349 59.2881 38.7962 59.2881 40.5807C59.2881 42.3652 57.8252 43.8123 56.0196 43.8123Z"
                      fill="white"
                    />
                  </g>
                  <defs>
                    <filter
                      id="filter0_d_138_4905"
                      x="0.651123"
                      y="0.234619"
                      width="92.3489"
                      height="92.3489"
                      filterUnits="userSpaceOnUse"
                      color-interpolation-filters="sRGB"
                    >
                      <feFlood flood-opacity="0" result="BackgroundImageFix" />
                      <feColorMatrix
                        in="SourceAlpha"
                        type="matrix"
                        values="0 0 0 0 0 0 0 0 0 0 0 0 0 0 0 0 0 0 127 0"
                        result="hardAlpha"
                      />
                      <feOffset dy="3" />
                      <feGaussianBlur stdDeviation="2" />
                      <feComposite in2="hardAlpha" operator="out" />
                      <feColorMatrix
                        type="matrix"
                        values="0 0 0 0 0 0 0 0 0 0 0 0 0 0 0 0 0 0 0.25 0"
                      />
                      <feBlend
                        mode="normal"
                        in2="BackgroundImageFix"
                        result="effect1_dropShadow_138_4905"
                      />
                      <feBlend
                        mode="normal"
                        in="SourceGraphic"
                        in2="effect1_dropShadow_138_4905"
                        result="shape"
                      />
                    </filter>
                    <clipPath id="clip0_138_4905">
                      <rect
                        width="84.3488"
                        height="84.3488"
                        fill="white"
                        transform="translate(4.65112 1.23462)"
                      />
                    </clipPath>
                  </defs>
                </svg>