<svg width="856" height="178" viewBox="0 0 856 178" fill="none" xmlns="http://www.w3.org/2000/svg">
<g filter="url(#filter0_d_0_1)">
<rect x="142.5" y="16.5" width="580" height="146" rx="73" stroke="url(#paint0_linear_0_1)" stroke-width="3"/>
</g>
<g filter="url(#filter1_d_0_1)">
<rect x="151.5" y="24.5" width="563" height="130" rx="65" stroke="#7000FF" stroke-width="3"/>
</g>
<g filter="url(#filter2_d_0_1)">
<rect x="160.5" y="32.5" width="544" height="114" rx="57" stroke="url(#paint1_linear_0_1)" stroke-width="3"/>
</g>
<g style="mix-blend-mode:hard-light" filter="url(#filter3_f_0_1)">
<ellipse cx="427" cy="88.9998" rx="256.2" ry="52.2" fill="#8F00FF" fill-opacity="0.227"/>
</g>
<g style="mix-blend-mode:difference">
<rect width="6.18466" height="6.18466" transform="matrix(0.685994 0.727607 -0.685994 0.727607 212.213 150)" fill="#00FF1A"/>
<rect width="6.18466" height="6.18466" transform="matrix(0.685994 0.727607 -0.685994 0.727607 212.213 20)" fill="#00FF1A"/>
<rect width="6.18466" height="6.18466" transform="matrix(0.685994 0.727607 -0.685994 0.727607 227.456 150)" fill="#00FF1A"/>
<rect width="6.18466" height="6.18466" transform="matrix(0.685994 0.727607 -0.685994 0.727607 227.456 20)" fill="#00FF1A"/>
<rect width="6.18466" height="6.18466" transform="matrix(0.685994 0.727607 -0.685994 0.727607 242.698 150)" fill="#00FF1A"/>
<rect width="6.18466" height="6.18466" transform="matrix(0.685994 0.727607 -0.685994 0.727607 242.698 20)" fill="#00FF1A"/>
<rect width="6.18466" height="6.18466" transform="matrix(0.685994 0.727607 -0.685994 0.727607 257.941 150)" fill="#00FF1A"/>
<rect width="6.18466" height="6.18466" transform="matrix(0.685994 0.727607 -0.685994 0.727607 257.941 20)" fill="#00FF1A"/>
<rect width="6.18466" height="6.18466" transform="matrix(0.685994 0.727607 -0.685994 0.727607 273.184 150)" fill="#00FF1A"/>
<rect width="6.18466" height="6.18466" transform="matrix(0.685994 0.727607 -0.685994 0.727607 273.184 20)" fill="#00FF1A"/>
<rect width="6.18466" height="6.18466" transform="matrix(0.685994 0.727607 -0.685994 0.727607 288.427 150)" fill="#00FF1A"/>
<rect width="6.18466" height="6.18466" transform="matrix(0.685994 0.727607 -0.685994 0.727607 288.427 20)" fill="#00FF1A"/>
<rect width="6.18466" height="6.18466" transform="matrix(0.685994 0.727607 -0.685994 0.727607 303.669 150)" fill="#00FF1A"/>
<rect width="6.18466" height="6.18466" transform="matrix(0.685994 0.727607 -0.685994 0.727607 303.669 20)" fill="#00FF1A"/>
<rect width="6.18466" height="6.18466" transform="matrix(0.685994 0.727607 -0.685994 0.727607 318.912 150)" fill="#00FF1A"/>
<rect width="6.18466" height="6.18466" transform="matrix(0.685994 0.727607 -0.685994 0.727607 318.912 20)" fill="#00FF1A"/>
<rect width="6.18466" height="6.18466" transform="matrix(0.685994 0.727607 -0.685994 0.727607 334.155 150)" fill="#00FF1A"/>
<rect width="6.18466" height="6.18466" transform="matrix(0.685994 0.727607 -0.685994 0.727607 334.155 20)" fill="#00FF1A"/>
<rect width="6.18466" height="6.18466" transform="matrix(0.685994 0.727607 -0.685994 0.727607 349.397 150)" fill="#00FF1A"/>
<rect width="6.18466" height="6.18466" transform="matrix(0.685994 0.727607 -0.685994 0.727607 349.397 20)" fill="#00FF1A"/>
<rect width="6.18466" height="6.18466" transform="matrix(0.685994 0.727607 -0.685994 0.727607 364.64 150)" fill="#00FF1A"/>
<rect width="6.18466" height="6.18466" transform="matrix(0.685994 0.727607 -0.685994 0.727607 364.64 20)" fill="#00FF1A"/>
<rect width="6.18466" height="6.18466" transform="matrix(0.685994 0.727607 -0.685994 0.727607 379.883 150)" fill="#00FF1A"/>
<rect width="6.18466" height="6.18466" transform="matrix(0.685994 0.727607 -0.685994 0.727607 379.883 20)" fill="#00FF1A"/>
<rect width="6.18466" height="6.18466" transform="matrix(0.685994 0.727607 -0.685994 0.727607 395.125 150)" fill="#00FF1A"/>
<rect width="6.18466" height="6.18466" transform="matrix(0.685994 0.727607 -0.685994 0.727607 395.125 20)" fill="#00FF1A"/>
<rect width="6.18466" height="6.18466" transform="matrix(0.685994 0.727607 -0.685994 0.727607 410.368 150)" fill="#00FF1A"/>
<rect width="6.18466" height="6.18466" transform="matrix(0.685994 0.727607 -0.685994 0.727607 410.368 20)" fill="#00FF1A"/>
<rect width="6.18466" height="6.18466" transform="matrix(0.685994 0.727607 -0.685994 0.727607 425.611 150)" fill="#00FF1A"/>
<rect width="6.18466" height="6.18466" transform="matrix(0.685994 0.727607 -0.685994 0.727607 425.611 20)" fill="#00FF1A"/>
<rect width="6.18466" height="6.18466" transform="matrix(0.685994 0.727607 -0.685994 0.727607 440.853 150)" fill="#00FF1A"/>
<rect width="6.18466" height="6.18466" transform="matrix(0.685994 0.727607 -0.685994 0.727607 440.853 20)" fill="#00FF1A"/>
<rect width="6.18466" height="6.18466" transform="matrix(0.685994 0.727607 -0.685994 0.727607 456.096 150)" fill="#00FF1A"/>
<rect width="6.18466" height="6.18466" transform="matrix(0.685994 0.727607 -0.685994 0.727607 456.096 20)" fill="#00FF1A"/>
<rect width="6.18466" height="6.18466" transform="matrix(0.685994 0.727607 -0.685994 0.727607 471.339 150)" fill="#00FF1A"/>
<rect width="6.18466" height="6.18466" transform="matrix(0.685994 0.727607 -0.685994 0.727607 471.339 20)" fill="#00FF1A"/>
<rect width="6.18466" height="6.18466" transform="matrix(0.685994 0.727607 -0.685994 0.727607 486.581 150)" fill="#00FF1A"/>
<rect width="6.18466" height="6.18466" transform="matrix(0.685994 0.727607 -0.685994 0.727607 486.581 20)" fill="#00FF1A"/>
<rect width="6.18466" height="6.18466" transform="matrix(0.685994 0.727607 -0.685994 0.727607 501.824 150)" fill="#00FF1A"/>
<rect width="6.18466" height="6.18466" transform="matrix(0.685994 0.727607 -0.685994 0.727607 501.824 20)" fill="#00FF1A"/>
<rect width="6.18466" height="6.18466" transform="matrix(0.685994 0.727607 -0.685994 0.727607 517.067 150)" fill="#00FF1A"/>
<rect width="6.18466" height="6.18466" transform="matrix(0.685994 0.727607 -0.685994 0.727607 517.067 20)" fill="#00FF1A"/>
<rect width="6.18466" height="6.18466" transform="matrix(0.685994 0.727607 -0.685994 0.727607 532.309 150)" fill="#00FF1A"/>
<rect width="6.18466" height="6.18466" transform="matrix(0.685994 0.727607 -0.685994 0.727607 532.309 20)" fill="#00FF1A"/>
<rect width="6.18466" height="6.18466" transform="matrix(0.685994 0.727607 -0.685994 0.727607 547.552 150)" fill="#00FF1A"/>
<rect width="6.18466" height="6.18466" transform="matrix(0.685994 0.727607 -0.685994 0.727607 547.552 20)" fill="#00FF1A"/>
<rect width="6.18466" height="6.18466" transform="matrix(0.685994 0.727607 -0.685994 0.727607 562.795 150)" fill="#00FF1A"/>
<rect width="6.18466" height="6.18466" transform="matrix(0.685994 0.727607 -0.685994 0.727607 562.795 20)" fill="#00FF1A"/>
<rect width="6.18466" height="6.18466" transform="matrix(0.685994 0.727607 -0.685994 0.727607 578.037 150)" fill="#00FF1A"/>
<rect width="6.18466" height="6.18466" transform="matrix(0.685994 0.727607 -0.685994 0.727607 578.037 20)" fill="#00FF1A"/>
<rect width="6.18466" height="6.18466" transform="matrix(0.685994 0.727607 -0.685994 0.727607 593.28 150)" fill="#00FF1A"/>
<rect width="6.18466" height="6.18466" transform="matrix(0.685994 0.727607 -0.685994 0.727607 593.28 20)" fill="#00FF1A"/>
<rect width="6.18466" height="6.18466" transform="matrix(0.685994 0.727607 -0.685994 0.727607 608.523 150)" fill="#00FF1A"/>
<rect width="6.18466" height="6.18466" transform="matrix(0.685994 0.727607 -0.685994 0.727607 608.523 20)" fill="#00FF1A"/>
<rect width="6.18466" height="6.18466" transform="matrix(0.685994 0.727607 -0.685994 0.727607 623.765 150)" fill="#00FF1A"/>
<rect width="6.18466" height="6.18466" transform="matrix(0.685994 0.727607 -0.685994 0.727607 623.765 20)" fill="#00FF1A"/>
<rect width="6.18466" height="6.18466" transform="matrix(0.685994 0.727607 -0.685994 0.727607 639.008 150)" fill="#00FF1A"/>
<rect width="6.18466" height="6.18466" transform="matrix(0.685994 0.727607 -0.685994 0.727607 639.008 20)" fill="#00FF1A"/>
<rect width="6.18466" height="6.18466" transform="matrix(0.685994 0.727607 -0.685994 0.727607 654.251 150)" fill="#00FF1A"/>
<rect width="6.18466" height="6.18466" transform="matrix(0.685994 0.727607 -0.685994 0.727607 654.251 20)" fill="#00FF1A"/>
</g>
<path d="M832.364 42.2363C830.764 38.6307 826.324 36.3477 822.48 37.1664L780.936 45.9679C777.092 46.7866 771.57 49.6049 768.652 52.2344L744.146 74.3718C741.227 77.0012 740.145 82.1183 741.73 85.7081L763.898 135.777C765.498 139.383 769.938 141.666 773.782 140.847L815.31 132.061C819.154 131.243 824.677 128.424 827.595 125.795L852.101 103.657C855.019 101.028 856.102 95.9109 854.501 92.321L832.364 42.2363Z" fill="url(#paint2_linear_0_1)"/>
<path d="M781.517 57.4461C779.587 53.0847 781.815 48.7076 786.459 47.7315L819.327 40.7722C823.986 39.7803 829.368 42.5514 831.297 46.9127L849.873 88.8573C851.803 93.2186 849.575 97.5957 844.931 98.5719L812.063 105.531C807.403 106.523 802.022 103.752 800.092 99.3907L781.517 57.4461Z" fill="url(#paint3_linear_0_1)"/>
<path d="M828.034 56.4225C826.779 53.5727 823.736 51.699 821.241 52.2344C818.746 52.7697 817.742 55.4936 818.998 58.3434C820.253 61.1775 823.296 63.0669 825.807 62.5316C828.301 61.9962 829.305 59.2566 828.034 56.4225Z" fill="url(#paint4_linear_0_1)"/>
<path d="M800.971 62.1535C799.716 59.3036 796.672 57.43 794.162 57.9653C791.667 58.5006 790.663 61.2245 791.918 64.0744C793.174 66.9085 796.217 68.7978 798.712 68.2625C801.222 67.7272 802.226 64.9876 800.971 62.1535Z" fill="url(#paint5_linear_0_1)"/>
<path d="M839.471 82.2287C838.216 79.3788 835.173 77.5052 832.662 78.0405C830.168 78.5758 829.164 81.2997 830.419 84.1496C831.674 86.9994 834.733 88.873 837.228 88.3377C839.722 87.8024 840.727 85.0628 839.471 82.2287Z" fill="url(#paint6_linear_0_1)"/>
<path d="M812.393 87.9596C811.137 85.1098 808.094 83.2361 805.584 83.7715C803.089 84.3068 802.085 87.0307 803.34 89.8805C804.595 92.7303 807.639 94.604 810.149 94.0687C812.644 93.5333 813.648 90.7937 812.393 87.9596Z" fill="url(#paint7_linear_0_1)"/>
<path d="M796.829 119.04C800.359 115.844 807.058 112.427 811.718 111.451L839.142 105.641C843.801 104.649 844.711 106.46 841.181 109.656L827.391 122.111C823.861 125.307 817.162 128.723 812.502 129.7L785.078 135.51C780.418 136.501 779.508 134.691 783.038 131.495L796.829 119.04Z" fill="url(#paint8_linear_0_1)"/>
<path d="M815.86 119.796C817.162 118.615 816.55 118.017 814.479 118.442C812.408 118.883 809.678 120.19 808.36 121.37C807.058 122.551 807.67 123.15 809.741 122.724C811.812 122.284 814.542 120.977 815.86 119.796Z" fill="url(#paint9_linear_0_1)"/>
<path d="M833.008 112.049C834.325 110.868 833.698 110.27 831.627 110.695C829.556 111.136 826.826 112.443 825.508 113.624C824.206 114.805 824.818 115.403 826.889 114.978C828.96 114.553 831.69 113.23 833.008 112.049Z" fill="url(#paint10_linear_0_1)"/>
<path d="M810.588 116.804C811.89 115.623 811.278 115.025 809.207 115.45C807.137 115.891 804.407 117.198 803.089 118.379C801.787 119.56 802.398 120.158 804.469 119.733C806.54 119.292 809.286 117.985 810.588 116.804Z" fill="url(#paint11_linear_0_1)"/>
<path d="M821.131 122.788C822.433 121.607 821.821 121.008 819.75 121.434C817.68 121.874 814.95 123.181 813.632 124.362C812.33 125.543 812.941 126.141 815.012 125.716C817.083 125.275 819.813 123.968 821.131 122.788Z" fill="url(#paint12_linear_0_1)"/>
<path d="M798.712 127.526C800.014 126.346 799.402 125.747 797.331 126.172C795.26 126.613 792.53 127.92 791.212 129.101C789.91 130.282 790.522 130.896 792.593 130.455C794.664 130.014 797.394 128.707 798.712 127.526Z" fill="url(#paint13_linear_0_1)"/>
<path d="M745.793 87.8335C743.863 83.4722 745.181 77.2844 748.711 74.1039L766.518 58.0283C770.048 54.8321 774.519 55.7925 776.465 60.1539L794.962 101.925C796.892 106.287 795.574 112.474 792.044 115.655L774.237 131.746C770.707 134.942 766.235 133.982 764.29 129.621L745.793 87.8335Z" fill="url(#paint14_linear_0_1)"/>
<path d="M751.88 86.2275C751.645 90.1008 753.528 94.1944 756.085 95.3911C758.642 96.5877 760.917 94.4306 761.152 90.5574C761.388 86.6998 759.505 82.5904 756.948 81.3938C754.375 80.1972 752.116 82.37 751.88 86.2275Z" fill="url(#paint15_linear_0_1)"/>
<path d="M779.618 99.2015C779.383 103.075 781.266 107.168 783.823 108.365C786.38 109.562 788.655 107.405 788.89 103.531C789.126 99.6738 787.243 95.5644 784.686 94.3678C782.113 93.1712 779.854 95.3282 779.618 99.2015Z" fill="url(#paint16_linear_0_1)"/>
<path d="M768.63 71.1787C767.72 67.1952 764.598 61.5743 761.68 58.7087L734.334 31.7691C731.432 28.9035 726.098 28.132 722.505 30.0686L673.085 56.6776C669.492 58.6142 667.296 63.4637 668.206 67.4471L677.399 107.801C678.309 111.785 681.431 117.406 684.35 120.271L711.695 147.211C714.613 150.077 719.932 150.848 723.525 148.912L772.945 122.303C776.537 120.366 778.734 115.517 777.824 111.533L768.63 71.1787Z" fill="url(#paint17_linear_0_1)"/>
<path d="M676.803 66.1246C673.901 63.259 674.45 59.3228 678.042 57.3861L721.987 33.7214C725.58 31.7848 730.898 32.5563 733.816 35.4219L756.722 58.0002C759.64 60.8658 759.075 64.802 755.483 66.7386L711.538 90.4033C707.945 92.3399 702.627 91.5684 699.709 88.7028L676.803 66.1246Z" fill="url(#paint18_linear_0_1)"/>
<path d="M736.687 69.1794C739.511 67.6679 740.406 65.07 738.696 63.3695C736.986 61.6848 733.314 61.5431 730.49 63.0703C727.666 64.5976 726.772 67.1798 728.482 68.8802C730.192 70.5649 733.863 70.7067 736.687 69.1794Z" fill="url(#paint19_linear_0_1)"/>
<path d="M728.074 60.6926C730.898 59.1811 731.793 56.5831 730.083 54.8827C728.373 53.198 724.701 53.0563 721.877 54.5835C719.053 56.095 718.159 58.7087 719.869 60.3934C721.579 62.0781 725.25 62.2198 728.074 60.6926Z" fill="url(#paint20_linear_0_1)"/>
<path d="M719.461 52.2062C722.285 50.6947 723.179 48.0968 721.469 46.3964C719.759 44.7116 716.088 44.5699 713.264 46.0972C710.44 47.6245 709.546 50.2066 711.256 51.9071C712.966 53.5918 716.637 53.7335 719.461 52.2062Z" fill="url(#paint21_linear_0_1)"/>
<path d="M720.261 78.028C723.085 76.5008 723.979 73.9186 722.269 72.2181C720.559 70.5334 716.888 70.3917 714.064 71.919C711.24 73.4305 710.346 76.0442 712.056 77.7289C713.782 79.4136 717.453 79.5395 720.261 78.028Z" fill="url(#paint22_linear_0_1)"/>
<path d="M711.648 69.5412C714.472 68.0139 715.366 65.416 713.656 63.7313C711.946 62.0466 708.275 61.9049 705.451 63.4322C702.627 64.9437 701.733 67.5573 703.443 69.2421C705.169 70.9268 708.84 71.0527 711.648 69.5412Z" fill="url(#paint23_linear_0_1)"/>
<path d="M703.035 61.0549C705.859 59.5276 706.753 56.9297 705.043 55.245C703.333 53.5603 699.662 53.4186 696.838 54.9458C694.014 56.4573 693.12 59.0553 694.83 60.7557C696.555 62.4404 700.227 62.5664 703.035 61.0549Z" fill="url(#paint24_linear_0_1)"/>
<path d="M687.048 118.76C684.145 115.894 681.008 110.274 680.098 106.29L673.351 76.7053C672.441 72.7218 674.073 71.7928 676.991 74.6584L696.493 93.8673C699.411 96.7329 702.533 102.354 703.443 106.337L710.189 135.922C711.099 139.906 709.467 140.834 706.549 137.969L687.048 118.76Z" fill="url(#paint25_linear_0_1)"/>
<path d="M696.257 110.746C695.441 107.156 692.774 102.259 690.28 99.8188C687.801 97.3783 686.452 98.2915 687.268 101.897C688.083 105.487 690.766 110.384 693.245 112.824C695.724 115.265 697.073 114.336 696.257 110.746Z" fill="url(#paint26_linear_0_1)"/>
<path d="M709.53 106.385C708.62 102.401 710.817 97.5516 714.409 95.615L758.417 71.9188C762.009 69.9822 765.696 71.6669 766.606 75.6504L774.419 109.99C775.329 113.974 773.133 118.823 769.54 120.76L725.533 144.456C721.94 146.392 718.253 144.708 717.343 140.724L709.53 106.385Z" fill="url(#paint27_linear_0_1)"/>
<path d="M722.426 101.252C724.215 98.3388 727.619 96.6699 730.035 97.5201C732.451 98.3703 732.954 101.425 731.165 104.338C729.376 107.25 725.956 108.919 723.556 108.069C721.124 107.219 720.622 104.164 722.426 101.252Z" fill="url(#paint28_linear_0_1)"/>
<path d="M737.598 106.636C739.386 103.724 742.791 102.055 745.207 102.905C747.623 103.755 748.125 106.81 746.336 109.722C744.548 112.635 741.128 114.304 738.727 113.454C736.311 112.604 735.809 109.549 737.598 106.636Z" fill="url(#paint29_linear_0_1)"/>
<path d="M752.784 112.021C754.573 109.108 757.977 107.439 760.393 108.29C762.81 109.14 763.312 112.194 761.523 115.107C759.735 118.02 756.33 119.689 753.914 118.839C751.498 117.989 750.996 114.918 752.784 112.021Z" fill="url(#paint30_linear_0_1)"/>
<defs>
<filter id="filter0_d_0_1" x="137" y="11" width="591" height="157" filterUnits="userSpaceOnUse" color-interpolation-filters="sRGB">
<feFlood flood-opacity="0" result="BackgroundImageFix"/>
<feColorMatrix in="SourceAlpha" type="matrix" values="0 0 0 0 0 0 0 0 0 0 0 0 0 0 0 0 0 0 127 0" result="hardAlpha"/>
<feOffset/>
<feGaussianBlur stdDeviation="2"/>
<feColorMatrix type="matrix" values="0 0 0 0 1 0 0 0 0 0.913725 0 0 0 0 0.278431 0 0 0 1 0"/>
<feBlend mode="normal" in2="BackgroundImageFix" result="effect1_dropShadow_0_1"/>
<feBlend mode="normal" in="SourceGraphic" in2="effect1_dropShadow_0_1" result="shape"/>
</filter>
<filter id="filter1_d_0_1" x="138" y="11" width="590" height="157" filterUnits="userSpaceOnUse" color-interpolation-filters="sRGB">
<feFlood flood-opacity="0" result="BackgroundImageFix"/>
<feColorMatrix in="SourceAlpha" type="matrix" values="0 0 0 0 0 0 0 0 0 0 0 0 0 0 0 0 0 0 127 0" result="hardAlpha"/>
<feMorphology radius="5" operator="dilate" in="SourceAlpha" result="effect1_dropShadow_0_1"/>
<feOffset/>
<feGaussianBlur stdDeviation="3.5"/>
<feColorMatrix type="matrix" values="0 0 0 0 0.443137 0 0 0 0 0.00392157 0 0 0 0 1 0 0 0 1 0"/>
<feBlend mode="normal" in2="BackgroundImageFix" result="effect1_dropShadow_0_1"/>
<feBlend mode="normal" in="SourceGraphic" in2="effect1_dropShadow_0_1" result="shape"/>
</filter>
<filter id="filter2_d_0_1" x="155" y="27" width="555" height="125" filterUnits="userSpaceOnUse" color-interpolation-filters="sRGB">
<feFlood flood-opacity="0" result="BackgroundImageFix"/>
<feColorMatrix in="SourceAlpha" type="matrix" values="0 0 0 0 0 0 0 0 0 0 0 0 0 0 0 0 0 0 127 0" result="hardAlpha"/>
<feOffset/>
<feGaussianBlur stdDeviation="2"/>
<feColorMatrix type="matrix" values="0 0 0 0 1 0 0 0 0 0.913725 0 0 0 0 0.278431 0 0 0 1 0"/>
<feBlend mode="normal" in2="BackgroundImageFix" result="effect1_dropShadow_0_1"/>
<feBlend mode="normal" in="SourceGraphic" in2="effect1_dropShadow_0_1" result="shape"/>
</filter>
<filter id="filter3_f_0_1" x="134.338" y="0.337929" width="585.324" height="177.324" filterUnits="userSpaceOnUse" color-interpolation-filters="sRGB">
<feFlood flood-opacity="0" result="BackgroundImageFix"/>
<feBlend mode="normal" in="SourceGraphic" in2="BackgroundImageFix" result="shape"/>
<feGaussianBlur stdDeviation="18.2309" result="effect1_foregroundBlur_0_1"/>
</filter>
<linearGradient id="paint0_linear_0_1" x1="432.752" y1="-62.48" x2="432.752" y2="245.95" gradientUnits="userSpaceOnUse">
<stop stop-color="#FFC700" stop-opacity="0"/>
<stop offset="0.235" stop-color="#FFC700"/>
<stop offset="0.505" stop-color="#FFE793"/>
<stop offset="0.745" stop-color="#FFC700"/>
<stop offset="1" stop-color="#FFC700" stop-opacity="0"/>
</linearGradient>
<linearGradient id="paint1_linear_0_1" x1="432.736" y1="-29.84" x2="432.736" y2="212.35" gradientUnits="userSpaceOnUse">
<stop stop-color="#FFC700" stop-opacity="0"/>
<stop offset="0.235" stop-color="#FFC700"/>
<stop offset="0.505" stop-color="#FFE793"/>
<stop offset="0.745" stop-color="#FFC700"/>
<stop offset="1" stop-color="#FFC700" stop-opacity="0"/>
</linearGradient>
<linearGradient id="paint2_linear_0_1" x1="787.3" y1="190.448" x2="806.487" y2="12.0054" gradientUnits="userSpaceOnUse">
<stop stop-color="#FDEDC9"/>
<stop offset="0.0221" stop-color="#F2DEB2"/>
<stop offset="0.0681" stop-color="#D7B779"/>
<stop offset="0.079" stop-color="#D0AD6A"/>
<stop offset="0.0897" stop-color="#C7A361"/>
<stop offset="0.1365" stop-color="#A47C3E"/>
<stop offset="0.1827" stop-color="#895D23"/>
<stop offset="0.2276" stop-color="#764710"/>
<stop offset="0.2706" stop-color="#6A3A04"/>
<stop offset="0.3097" stop-color="#663500"/>
<stop offset="0.3499" stop-color="#6B3B05"/>
<stop offset="0.4018" stop-color="#794B13"/>
<stop offset="0.46" stop-color="#91652B"/>
<stop offset="0.5224" stop-color="#B18A4B"/>
<stop offset="0.5729" stop-color="#D0AD6A"/>
<stop offset="0.6667" stop-color="#EDD6A7"/>
<stop offset="0.7271" stop-color="#FDEDC9"/>
<stop offset="0.7589" stop-color="#F2DEB2"/>
<stop offset="0.8249" stop-color="#D7B779"/>
<stop offset="0.8406" stop-color="#D0AD6A"/>
<stop offset="0.9496" stop-color="#84581E"/>
<stop offset="1" stop-color="#663500"/>
</linearGradient>
<linearGradient id="paint3_linear_0_1" x1="750.944" y1="191.213" x2="848.644" y2="14.3251" gradientUnits="userSpaceOnUse">
<stop stop-color="#FDEDC9"/>
<stop offset="0.0221" stop-color="#F2DEB2"/>
<stop offset="0.0681" stop-color="#D7B779"/>
<stop offset="0.079" stop-color="#D0AD6A"/>
<stop offset="0.0897" stop-color="#C7A361"/>
<stop offset="0.1365" stop-color="#A47C3E"/>
<stop offset="0.1827" stop-color="#895D23"/>
<stop offset="0.2276" stop-color="#764710"/>
<stop offset="0.2706" stop-color="#6A3A04"/>
<stop offset="0.3097" stop-color="#663500"/>
<stop offset="0.3499" stop-color="#6B3B05"/>
<stop offset="0.4018" stop-color="#794B13"/>
<stop offset="0.46" stop-color="#91652B"/>
<stop offset="0.5224" stop-color="#B18A4B"/>
<stop offset="0.5729" stop-color="#D0AD6A"/>
<stop offset="0.6667" stop-color="#EDD6A7"/>
<stop offset="0.7271" stop-color="#FDEDC9"/>
<stop offset="0.7589" stop-color="#F2DEB2"/>
<stop offset="0.8249" stop-color="#D7B779"/>
<stop offset="0.8406" stop-color="#D0AD6A"/>
<stop offset="0.9496" stop-color="#84581E"/>
<stop offset="1" stop-color="#663500"/>
</linearGradient>
<linearGradient id="paint4_linear_0_1" x1="814.689" y1="128.739" x2="823.88" y2="54.985" gradientUnits="userSpaceOnUse">
<stop/>
<stop offset="1" stop-color="#212121"/>
</linearGradient>
<linearGradient id="paint5_linear_0_1" x1="788.72" y1="125.501" x2="797.911" y2="51.7487" gradientUnits="userSpaceOnUse">
<stop/>
<stop offset="1" stop-color="#212121"/>
</linearGradient>
<linearGradient id="paint6_linear_0_1" x1="829.083" y1="130.532" x2="838.275" y2="56.779" gradientUnits="userSpaceOnUse">
<stop/>
<stop offset="1" stop-color="#212121"/>
</linearGradient>
<linearGradient id="paint7_linear_0_1" x1="803.114" y1="127.296" x2="812.306" y2="53.5416" gradientUnits="userSpaceOnUse">
<stop/>
<stop offset="1" stop-color="#212121"/>
</linearGradient>
<linearGradient id="paint8_linear_0_1" x1="803.256" y1="102.666" x2="843.176" y2="182.858" gradientUnits="userSpaceOnUse">
<stop stop-color="#FDEDC9"/>
<stop offset="0.0221" stop-color="#F2DEB2"/>
<stop offset="0.0681" stop-color="#D7B779"/>
<stop offset="0.079" stop-color="#D0AD6A"/>
<stop offset="0.0897" stop-color="#C7A361"/>
<stop offset="0.1365" stop-color="#A47C3E"/>
<stop offset="0.1827" stop-color="#895D23"/>
<stop offset="0.2276" stop-color="#764710"/>
<stop offset="0.2706" stop-color="#6A3A04"/>
<stop offset="0.3097" stop-color="#663500"/>
<stop offset="0.3499" stop-color="#6B3B05"/>
<stop offset="0.4018" stop-color="#794B13"/>
<stop offset="0.46" stop-color="#91652B"/>
<stop offset="0.5224" stop-color="#B18A4B"/>
<stop offset="0.5729" stop-color="#D0AD6A"/>
<stop offset="0.6667" stop-color="#EDD6A7"/>
<stop offset="0.7271" stop-color="#FDEDC9"/>
<stop offset="0.7589" stop-color="#F2DEB2"/>
<stop offset="0.8249" stop-color="#D7B779"/>
<stop offset="0.8406" stop-color="#D0AD6A"/>
<stop offset="0.9496" stop-color="#84581E"/>
<stop offset="1" stop-color="#663500"/>
</linearGradient>
<linearGradient id="paint9_linear_0_1" x1="808.84" y1="125.267" x2="830.722" y2="94.1642" gradientUnits="userSpaceOnUse">
<stop/>
<stop offset="1" stop-color="#212121"/>
</linearGradient>
<linearGradient id="paint10_linear_0_1" x1="816.713" y1="130.806" x2="838.596" y2="99.7026" gradientUnits="userSpaceOnUse">
<stop/>
<stop offset="1" stop-color="#212121"/>
</linearGradient>
<linearGradient id="paint11_linear_0_1" x1="803.907" y1="121.796" x2="825.789" y2="90.6928" gradientUnits="userSpaceOnUse">
<stop/>
<stop offset="1" stop-color="#212121"/>
</linearGradient>
<linearGradient id="paint12_linear_0_1" x1="813.773" y1="128.738" x2="835.656" y2="97.6335" gradientUnits="userSpaceOnUse">
<stop/>
<stop offset="1" stop-color="#212121"/>
</linearGradient>
<linearGradient id="paint13_linear_0_1" x1="800.967" y1="119.727" x2="822.849" y2="88.6227" gradientUnits="userSpaceOnUse">
<stop/>
<stop offset="1" stop-color="#212121"/>
</linearGradient>
<linearGradient id="paint14_linear_0_1" x1="769.983" y1="165.423" x2="770.943" y2="-4.42986" gradientUnits="userSpaceOnUse">
<stop stop-color="#FDEDC9"/>
<stop offset="0.0221" stop-color="#F2DEB2"/>
<stop offset="0.0681" stop-color="#D7B779"/>
<stop offset="0.079" stop-color="#D0AD6A"/>
<stop offset="0.0897" stop-color="#C7A361"/>
<stop offset="0.1365" stop-color="#A47C3E"/>
<stop offset="0.1827" stop-color="#895D23"/>
<stop offset="0.2276" stop-color="#764710"/>
<stop offset="0.2706" stop-color="#6A3A04"/>
<stop offset="0.3097" stop-color="#663500"/>
<stop offset="0.3499" stop-color="#6B3B05"/>
<stop offset="0.4018" stop-color="#794B13"/>
<stop offset="0.46" stop-color="#91652B"/>
<stop offset="0.5224" stop-color="#B18A4B"/>
<stop offset="0.5729" stop-color="#D0AD6A"/>
<stop offset="0.6667" stop-color="#EDD6A7"/>
<stop offset="0.7271" stop-color="#FDEDC9"/>
<stop offset="0.7589" stop-color="#F2DEB2"/>
<stop offset="0.8249" stop-color="#D7B779"/>
<stop offset="0.8406" stop-color="#D0AD6A"/>
<stop offset="0.9496" stop-color="#84581E"/>
<stop offset="1" stop-color="#663500"/>
</linearGradient>
<linearGradient id="paint15_linear_0_1" x1="782.345" y1="89.2069" x2="864.335" y2="91.7598" gradientUnits="userSpaceOnUse">
<stop/>
<stop offset="1" stop-color="#212121"/>
</linearGradient>
<linearGradient id="paint16_linear_0_1" x1="781.967" y1="101.29" x2="863.956" y2="103.843" gradientUnits="userSpaceOnUse">
<stop/>
<stop offset="1" stop-color="#212121"/>
</linearGradient>
<linearGradient id="paint17_linear_0_1" x1="723.381" y1="230.683" x2="722.741" y2="-12.7833" gradientUnits="userSpaceOnUse">
<stop stop-color="#FDEDC9"/>
<stop offset="0.0221" stop-color="#F2DEB2"/>
<stop offset="0.0681" stop-color="#D7B779"/>
<stop offset="0.079" stop-color="#D0AD6A"/>
<stop offset="0.0897" stop-color="#C7A361"/>
<stop offset="0.1365" stop-color="#A47C3E"/>
<stop offset="0.1827" stop-color="#895D23"/>
<stop offset="0.2276" stop-color="#764710"/>
<stop offset="0.2706" stop-color="#6A3A04"/>
<stop offset="0.3097" stop-color="#663500"/>
<stop offset="0.3499" stop-color="#6B3B05"/>
<stop offset="0.4018" stop-color="#794B13"/>
<stop offset="0.46" stop-color="#91652B"/>
<stop offset="0.5224" stop-color="#B18A4B"/>
<stop offset="0.5729" stop-color="#D0AD6A"/>
<stop offset="0.6667" stop-color="#EDD6A7"/>
<stop offset="0.7271" stop-color="#FDEDC9"/>
<stop offset="0.7589" stop-color="#F2DEB2"/>
<stop offset="0.8249" stop-color="#D7B779"/>
<stop offset="0.8406" stop-color="#D0AD6A"/>
<stop offset="0.9496" stop-color="#84581E"/>
<stop offset="1" stop-color="#663500"/>
</linearGradient>
<linearGradient id="paint18_linear_0_1" x1="725.936" y1="165.149" x2="709.946" y2="-13.2979" gradientUnits="userSpaceOnUse">
<stop stop-color="#FDEDC9"/>
<stop offset="0.0221" stop-color="#F2DEB2"/>
<stop offset="0.0681" stop-color="#D7B779"/>
<stop offset="0.079" stop-color="#D0AD6A"/>
<stop offset="0.0897" stop-color="#C7A361"/>
<stop offset="0.1365" stop-color="#A47C3E"/>
<stop offset="0.1827" stop-color="#895D23"/>
<stop offset="0.2276" stop-color="#764710"/>
<stop offset="0.2706" stop-color="#6A3A04"/>
<stop offset="0.3097" stop-color="#663500"/>
<stop offset="0.3499" stop-color="#6B3B05"/>
<stop offset="0.4018" stop-color="#794B13"/>
<stop offset="0.46" stop-color="#91652B"/>
<stop offset="0.5224" stop-color="#B18A4B"/>
<stop offset="0.5729" stop-color="#D0AD6A"/>
<stop offset="0.6667" stop-color="#EDD6A7"/>
<stop offset="0.7271" stop-color="#FDEDC9"/>
<stop offset="0.7589" stop-color="#F2DEB2"/>
<stop offset="0.8249" stop-color="#D7B779"/>
<stop offset="0.8406" stop-color="#D0AD6A"/>
<stop offset="0.9496" stop-color="#84581E"/>
<stop offset="1" stop-color="#663500"/>
</linearGradient>
<linearGradient id="paint19_linear_0_1" x1="722.612" y1="116.473" x2="738.412" y2="44.5027" gradientUnits="userSpaceOnUse">
<stop/>
<stop offset="1" stop-color="#212121"/>
</linearGradient>
<linearGradient id="paint20_linear_0_1" x1="712.627" y1="114.284" x2="728.427" y2="42.3098" gradientUnits="userSpaceOnUse">
<stop/>
<stop offset="1" stop-color="#212121"/>
</linearGradient>
<linearGradient id="paint21_linear_0_1" x1="702.642" y1="112.091" x2="718.442" y2="40.1186" gradientUnits="userSpaceOnUse">
<stop/>
<stop offset="1" stop-color="#212121"/>
</linearGradient>
<linearGradient id="paint22_linear_0_1" x1="708.786" y1="113.439" x2="724.586" y2="41.4663" gradientUnits="userSpaceOnUse">
<stop/>
<stop offset="1" stop-color="#212121"/>
</linearGradient>
<linearGradient id="paint23_linear_0_1" x1="698.802" y1="111.247" x2="714.602" y2="39.2749" gradientUnits="userSpaceOnUse">
<stop/>
<stop offset="1" stop-color="#212121"/>
</linearGradient>
<linearGradient id="paint24_linear_0_1" x1="688.816" y1="109.056" x2="704.617" y2="37.0826" gradientUnits="userSpaceOnUse">
<stop/>
<stop offset="1" stop-color="#212121"/>
</linearGradient>
<linearGradient id="paint25_linear_0_1" x1="660.639" y1="144.633" x2="736.696" y2="51.6873" gradientUnits="userSpaceOnUse">
<stop stop-color="#FDEDC9"/>
<stop offset="0.0221" stop-color="#F2DEB2"/>
<stop offset="0.0681" stop-color="#D7B779"/>
<stop offset="0.079" stop-color="#D0AD6A"/>
<stop offset="0.0897" stop-color="#C7A361"/>
<stop offset="0.1365" stop-color="#A47C3E"/>
<stop offset="0.1827" stop-color="#895D23"/>
<stop offset="0.2276" stop-color="#764710"/>
<stop offset="0.2706" stop-color="#6A3A04"/>
<stop offset="0.3097" stop-color="#663500"/>
<stop offset="0.3499" stop-color="#6B3B05"/>
<stop offset="0.4018" stop-color="#794B13"/>
<stop offset="0.46" stop-color="#91652B"/>
<stop offset="0.5224" stop-color="#B18A4B"/>
<stop offset="0.5729" stop-color="#D0AD6A"/>
<stop offset="0.6667" stop-color="#EDD6A7"/>
<stop offset="0.7271" stop-color="#FDEDC9"/>
<stop offset="0.7589" stop-color="#F2DEB2"/>
<stop offset="0.8249" stop-color="#D7B779"/>
<stop offset="0.8406" stop-color="#D0AD6A"/>
<stop offset="0.9496" stop-color="#84581E"/>
<stop offset="1" stop-color="#663500"/>
</linearGradient>
<linearGradient id="paint26_linear_0_1" x1="685.976" y1="115.608" x2="718.809" y2="63.3257" gradientUnits="userSpaceOnUse">
<stop/>
<stop offset="1" stop-color="#212121"/>
</linearGradient>
<linearGradient id="paint27_linear_0_1" x1="687.701" y1="191.899" x2="817.269" y2="-6.53092" gradientUnits="userSpaceOnUse">
<stop stop-color="#FDEDC9"/>
<stop offset="0.0221" stop-color="#F2DEB2"/>
<stop offset="0.0681" stop-color="#D7B779"/>
<stop offset="0.079" stop-color="#D0AD6A"/>
<stop offset="0.0897" stop-color="#C7A361"/>
<stop offset="0.1365" stop-color="#A47C3E"/>
<stop offset="0.1827" stop-color="#895D23"/>
<stop offset="0.2276" stop-color="#764710"/>
<stop offset="0.2706" stop-color="#6A3A04"/>
<stop offset="0.3097" stop-color="#663500"/>
<stop offset="0.3499" stop-color="#6B3B05"/>
<stop offset="0.4018" stop-color="#794B13"/>
<stop offset="0.46" stop-color="#91652B"/>
<stop offset="0.5224" stop-color="#B18A4B"/>
<stop offset="0.5729" stop-color="#D0AD6A"/>
<stop offset="0.6667" stop-color="#EDD6A7"/>
<stop offset="0.7271" stop-color="#FDEDC9"/>
<stop offset="0.7589" stop-color="#F2DEB2"/>
<stop offset="0.8249" stop-color="#D7B779"/>
<stop offset="0.8406" stop-color="#D0AD6A"/>
<stop offset="0.9496" stop-color="#84581E"/>
<stop offset="1" stop-color="#663500"/>
</linearGradient>
<linearGradient id="paint28_linear_0_1" x1="753.832" y1="133.879" x2="721.933" y2="97.4795" gradientUnits="userSpaceOnUse">
<stop/>
<stop offset="1" stop-color="#212121"/>
</linearGradient>
<linearGradient id="paint29_linear_0_1" x1="761.636" y1="130.776" x2="729.738" y2="94.3785" gradientUnits="userSpaceOnUse">
<stop/>
<stop offset="1" stop-color="#212121"/>
</linearGradient>
<linearGradient id="paint30_linear_0_1" x1="769.441" y1="127.674" x2="737.544" y2="91.2771" gradientUnits="userSpaceOnUse">
<stop/>
<stop offset="1" stop-color="#212121"/>
</linearGradient>
</defs>
</svg>
