<svg width="928" height="170" viewBox="0 0 928 170" fill="none" xmlns="http://www.w3.org/2000/svg">
<g filter="url(#filter0_d_149_193)">
<rect x="29.6021" y="29" width="868.542" height="108" rx="22" fill="url(#paint0_linear_149_193)"/>
<rect x="31.6021" y="31" width="864.542" height="104" rx="20" stroke="#9ED1FF" stroke-width="4"/>
</g>
<g filter="url(#filter1_d_149_193)">
<rect x="11" y="11" width="906" height="148" rx="39" stroke="#9ED1FF" stroke-width="4"/>
</g>
<g filter="url(#filter2_d_149_193)">
<rect x="21.8433" y="21" width="885.144" height="126" rx="31" stroke="#FFE947" stroke-width="4"/>
</g>
<g style="mix-blend-mode:difference">
<ellipse cx="80.5542" cy="147.347" rx="5.5453" ry="3.64072" fill="#1AACFF"/>
<ellipse cx="112.44" cy="147.347" rx="5.5453" ry="3.64072" fill="#1AACFF"/>
<ellipse cx="144.325" cy="147.347" rx="5.5453" ry="3.64072" fill="#1AACFF"/>
<ellipse cx="176.211" cy="147.347" rx="5.5453" ry="3.64072" fill="#1AACFF"/>
<ellipse cx="208.096" cy="147.347" rx="5.5453" ry="3.64072" fill="#1AACFF"/>
<ellipse cx="239.982" cy="147.347" rx="5.5453" ry="3.64072" fill="#1AACFF"/>
<ellipse cx="271.867" cy="147.347" rx="5.5453" ry="3.64072" fill="#1AACFF"/>
<ellipse cx="303.753" cy="147.347" rx="5.5453" ry="3.64072" fill="#1AACFF"/>
<ellipse cx="335.638" cy="147.347" rx="5.5453" ry="3.64072" fill="#1AACFF"/>
<ellipse cx="367.524" cy="147.347" rx="5.5453" ry="3.64072" fill="#1AACFF"/>
<ellipse cx="399.409" cy="147.347" rx="5.5453" ry="3.64072" fill="#1AACFF"/>
<ellipse cx="431.295" cy="147.347" rx="5.5453" ry="3.64072" fill="#1AACFF"/>
<ellipse cx="463.18" cy="147.347" rx="5.5453" ry="3.64072" fill="#1AACFF"/>
<ellipse cx="495.065" cy="147.347" rx="5.5453" ry="3.64072" fill="#1AACFF"/>
<ellipse cx="526.951" cy="147.347" rx="5.5453" ry="3.64072" fill="#1AACFF"/>
<ellipse cx="558.836" cy="147.347" rx="5.5453" ry="3.64072" fill="#1AACFF"/>
<ellipse cx="590.722" cy="147.347" rx="5.5453" ry="3.64072" fill="#1AACFF"/>
<ellipse cx="622.607" cy="147.347" rx="5.5453" ry="3.64072" fill="#1AACFF"/>
<ellipse cx="654.493" cy="147.347" rx="5.5453" ry="3.64072" fill="#1AACFF"/>
<ellipse cx="686.378" cy="147.347" rx="5.5453" ry="3.64072" fill="#1AACFF"/>
<ellipse cx="718.264" cy="147.347" rx="5.5453" ry="3.64072" fill="#1AACFF"/>
<ellipse cx="750.149" cy="147.347" rx="5.5453" ry="3.64072" fill="#1AACFF"/>
<ellipse cx="782.035" cy="147.347" rx="5.5453" ry="3.64072" fill="#1AACFF"/>
<ellipse cx="813.92" cy="147.347" rx="5.5453" ry="3.64072" fill="#1AACFF"/>
<ellipse cx="845.806" cy="147.347" rx="5.5453" ry="3.64072" fill="#1AACFF"/>
</g>
<g style="mix-blend-mode:difference">
<ellipse cx="79.1679" cy="22" rx="5.5453" ry="4" fill="#1AACFF"/>
<ellipse cx="111.053" cy="22" rx="5.5453" ry="4" fill="#1AACFF"/>
<ellipse cx="142.939" cy="22" rx="5.5453" ry="4" fill="#1AACFF"/>
<ellipse cx="174.824" cy="22" rx="5.5453" ry="4" fill="#1AACFF"/>
<ellipse cx="206.71" cy="22" rx="5.5453" ry="4" fill="#1AACFF"/>
<ellipse cx="238.595" cy="22" rx="5.5453" ry="4" fill="#1AACFF"/>
<ellipse cx="270.481" cy="22" rx="5.5453" ry="4" fill="#1AACFF"/>
<ellipse cx="302.366" cy="22" rx="5.5453" ry="4" fill="#1AACFF"/>
<ellipse cx="334.252" cy="22" rx="5.5453" ry="4" fill="#1AACFF"/>
<ellipse cx="366.137" cy="22" rx="5.5453" ry="4" fill="#1AACFF"/>
<ellipse cx="398.023" cy="22" rx="5.5453" ry="4" fill="#1AACFF"/>
<ellipse cx="429.908" cy="22" rx="5.5453" ry="4" fill="#1AACFF"/>
<ellipse cx="461.794" cy="22" rx="5.5453" ry="4" fill="#1AACFF"/>
<ellipse cx="493.679" cy="22" rx="5.5453" ry="4" fill="#1AACFF"/>
<ellipse cx="525.565" cy="22" rx="5.5453" ry="4" fill="#1AACFF"/>
<ellipse cx="557.45" cy="22" rx="5.5453" ry="4" fill="#1AACFF"/>
<ellipse cx="589.336" cy="22" rx="5.5453" ry="4" fill="#1AACFF"/>
<ellipse cx="621.221" cy="22" rx="5.5453" ry="4" fill="#1AACFF"/>
<ellipse cx="653.106" cy="22" rx="5.5453" ry="4" fill="#1AACFF"/>
<ellipse cx="684.992" cy="22" rx="5.5453" ry="4" fill="#1AACFF"/>
<ellipse cx="716.877" cy="22" rx="5.5453" ry="4" fill="#1AACFF"/>
<ellipse cx="748.763" cy="22" rx="5.5453" ry="4" fill="#1AACFF"/>
<ellipse cx="780.648" cy="22" rx="5.5453" ry="4" fill="#1AACFF"/>
<ellipse cx="812.534" cy="22" rx="5.5453" ry="4" fill="#1AACFF"/>
<ellipse cx="844.419" cy="22" rx="5.5453" ry="4" fill="#1AACFF"/>
</g>
<line x1="140.034" y1="33" x2="140.034" y2="134" stroke="#9ED1FF" stroke-width="4"/>
<line x1="247.382" y1="33" x2="247.382" y2="134" stroke="#9ED1FF" stroke-width="4"/>
<line x1="355.814" y1="33" x2="355.814" y2="134" stroke="#9ED1FF" stroke-width="4"/>
<line x1="464.246" y1="33" x2="464.246" y2="134" stroke="#9ED1FF" stroke-width="4"/>
<line x1="572.678" y1="33" x2="572.678" y2="134" stroke="#9ED1FF" stroke-width="4"/>
<line x1="680.026" y1="33" x2="680.026" y2="134" stroke="#9ED1FF" stroke-width="4"/>
<line x1="788.458" y1="33" x2="788.458" y2="134" stroke="#9ED1FF" stroke-width="4"/>
<defs>
<filter id="filter0_d_149_193" x="20.6021" y="20" width="886.542" height="126" filterUnits="userSpaceOnUse" color-interpolation-filters="sRGB">
<feFlood flood-opacity="0" result="BackgroundImageFix"/>
<feColorMatrix in="SourceAlpha" type="matrix" values="0 0 0 0 0 0 0 0 0 0 0 0 0 0 0 0 0 0 127 0" result="hardAlpha"/>
<feMorphology radius="3" operator="dilate" in="SourceAlpha" result="effect1_dropShadow_149_193"/>
<feOffset/>
<feGaussianBlur stdDeviation="3"/>
<feColorMatrix type="matrix" values="0 0 0 0 0 0 0 0 0 0.289175 0 0 0 0 0.55 0 0 0 1 0"/>
<feBlend mode="normal" in2="BackgroundImageFix" result="effect1_dropShadow_149_193"/>
<feBlend mode="normal" in="SourceGraphic" in2="effect1_dropShadow_149_193" result="shape"/>
</filter>
<filter id="filter1_d_149_193" x="0" y="0" width="928" height="170" filterUnits="userSpaceOnUse" color-interpolation-filters="sRGB">
<feFlood flood-opacity="0" result="BackgroundImageFix"/>
<feColorMatrix in="SourceAlpha" type="matrix" values="0 0 0 0 0 0 0 0 0 0 0 0 0 0 0 0 0 0 127 0" result="hardAlpha"/>
<feMorphology radius="3" operator="dilate" in="SourceAlpha" result="effect1_dropShadow_149_193"/>
<feOffset/>
<feGaussianBlur stdDeviation="3"/>
<feColorMatrix type="matrix" values="0 0 0 0 0 0 0 0 0 0.290196 0 0 0 0 0.54902 0 0 0 1 0"/>
<feBlend mode="normal" in2="BackgroundImageFix" result="effect1_dropShadow_149_193"/>
<feBlend mode="normal" in="SourceGraphic" in2="effect1_dropShadow_149_193" result="shape"/>
</filter>
<filter id="filter2_d_149_193" x="11.8433" y="11" width="905.144" height="146" filterUnits="userSpaceOnUse" color-interpolation-filters="sRGB">
<feFlood flood-opacity="0" result="BackgroundImageFix"/>
<feColorMatrix in="SourceAlpha" type="matrix" values="0 0 0 0 0 0 0 0 0 0 0 0 0 0 0 0 0 0 127 0" result="hardAlpha"/>
<feMorphology radius="3" operator="dilate" in="SourceAlpha" result="effect1_dropShadow_149_193"/>
<feOffset/>
<feGaussianBlur stdDeviation="2.5"/>
<feColorMatrix type="matrix" values="0 0 0 0 1 0 0 0 0 0.913725 0 0 0 0 0.278431 0 0 0 1 0"/>
<feBlend mode="normal" in2="BackgroundImageFix" result="effect1_dropShadow_149_193"/>
<feBlend mode="normal" in="SourceGraphic" in2="effect1_dropShadow_149_193" result="shape"/>
</filter>
<linearGradient id="paint0_linear_149_193" x1="463.873" y1="29" x2="463.873" y2="137" gradientUnits="userSpaceOnUse">
<stop stop-color="#000F99"/>
<stop offset="0.305" stop-color="#1D33FF"/>
<stop offset="0.52" stop-color="#3448FF"/>
<stop offset="0.715" stop-color="#253BFF"/>
<stop offset="1" stop-color="#000F99"/>
</linearGradient>
</defs>
</svg>
