<svg width="1287" height="118" viewBox="0 0 1287 118" fill="none" xmlns="http://www.w3.org/2000/svg">
<g filter="url(#filter0_d_0_1)">
<rect x="5.5" y="5.5" width="1276" height="107" rx="23.5" stroke="white" stroke-width="3"/>
</g>
<g filter="url(#filter1_d_0_1)">
<rect x="14.5" y="13.5" width="1258" height="91" rx="13.5" stroke="#FB20FF" stroke-width="3"/>
</g>
<g filter="url(#filter2_d_0_1)">
<rect x="23.5" y="19.5" width="1240" height="79" rx="8.5" stroke="white" stroke-width="3"/>
</g>
<g style="mix-blend-mode:difference">
<ellipse cx="116" cy="12.4028" rx="4" ry="2.84564" fill="#6DDCFF"/>
<ellipse cx="139" cy="12.4028" rx="4" ry="2.84564" fill="#6DDCFF"/>
<ellipse cx="162" cy="12.4028" rx="4" ry="2.84564" fill="#6DDCFF"/>
<ellipse cx="185" cy="12.4028" rx="4" ry="2.84564" fill="#6DDCFF"/>
<ellipse cx="208" cy="12.4028" rx="4" ry="2.84564" fill="#6DDCFF"/>
<ellipse cx="231" cy="12.4028" rx="4" ry="2.84564" fill="#6DDCFF"/>
<ellipse cx="254" cy="12.4028" rx="4" ry="2.84564" fill="#6DDCFF"/>
<ellipse cx="277" cy="12.4028" rx="4" ry="2.84564" fill="#6DDCFF"/>
<ellipse cx="300" cy="12.4028" rx="4" ry="2.84564" fill="#6DDCFF"/>
<ellipse cx="323" cy="12.4028" rx="4" ry="2.84564" fill="#6DDCFF"/>
<ellipse cx="346" cy="12.4028" rx="4" ry="2.84564" fill="#6DDCFF"/>
<ellipse cx="369" cy="12.4028" rx="4" ry="2.84564" fill="#6DDCFF"/>
<ellipse cx="392" cy="12.4028" rx="4" ry="2.84564" fill="#6DDCFF"/>
<ellipse cx="415" cy="12.4028" rx="4" ry="2.84564" fill="#6DDCFF"/>
<ellipse cx="438" cy="12.4028" rx="4" ry="2.84564" fill="#6DDCFF"/>
<ellipse cx="461" cy="12.4028" rx="4" ry="2.84564" fill="#6DDCFF"/>
<ellipse cx="484" cy="12.4028" rx="4" ry="2.84564" fill="#6DDCFF"/>
<ellipse cx="507" cy="12.4028" rx="4" ry="2.84564" fill="#6DDCFF"/>
<ellipse cx="530" cy="12.4028" rx="4" ry="2.84564" fill="#6DDCFF"/>
<ellipse cx="553" cy="12.4028" rx="4" ry="2.84564" fill="#6DDCFF"/>
<ellipse cx="576" cy="12.4028" rx="4" ry="2.84564" fill="#6DDCFF"/>
<ellipse cx="599" cy="12.4028" rx="4" ry="2.84564" fill="#6DDCFF"/>
<ellipse cx="622" cy="12.4028" rx="4" ry="2.84564" fill="#6DDCFF"/>
<ellipse cx="645" cy="12.4028" rx="4" ry="2.84564" fill="#6DDCFF"/>
<ellipse cx="668" cy="12.4028" rx="4" ry="2.84564" fill="#6DDCFF"/>
<ellipse cx="691" cy="12.4028" rx="4" ry="2.84564" fill="#6DDCFF"/>
<ellipse cx="714" cy="12.4028" rx="4" ry="2.84564" fill="#6DDCFF"/>
<ellipse cx="737" cy="12.4028" rx="4" ry="2.84564" fill="#6DDCFF"/>
<ellipse cx="760" cy="12.4028" rx="4" ry="2.84564" fill="#6DDCFF"/>
<ellipse cx="783" cy="12.4028" rx="4" ry="2.84564" fill="#6DDCFF"/>
<ellipse cx="806" cy="12.4028" rx="4" ry="2.84564" fill="#6DDCFF"/>
<ellipse cx="829" cy="12.4028" rx="4" ry="2.84564" fill="#6DDCFF"/>
<ellipse cx="852" cy="12.4028" rx="4" ry="2.84564" fill="#6DDCFF"/>
<ellipse cx="875" cy="12.4028" rx="4" ry="2.84564" fill="#6DDCFF"/>
<ellipse cx="898" cy="12.4028" rx="4" ry="2.84564" fill="#6DDCFF"/>
<ellipse cx="921" cy="12.4028" rx="4" ry="2.84564" fill="#6DDCFF"/>
<ellipse cx="944" cy="12.4028" rx="4" ry="2.84564" fill="#6DDCFF"/>
<ellipse cx="967" cy="12.4028" rx="4" ry="2.84564" fill="#6DDCFF"/>
<ellipse cx="990" cy="12.4028" rx="4" ry="2.84564" fill="#6DDCFF"/>
<ellipse cx="1013" cy="12.4028" rx="4" ry="2.84564" fill="#6DDCFF"/>
<ellipse cx="1036" cy="12.4028" rx="4" ry="2.84564" fill="#6DDCFF"/>
<ellipse cx="1059" cy="12.4028" rx="4" ry="2.84564" fill="#6DDCFF"/>
<ellipse cx="1082" cy="12.4028" rx="4" ry="2.84564" fill="#6DDCFF"/>
<ellipse cx="1105" cy="12.4028" rx="4" ry="2.84564" fill="#6DDCFF"/>
<ellipse cx="1128" cy="12.4028" rx="4" ry="2.84564" fill="#6DDCFF"/>
<ellipse cx="1151" cy="12.4028" rx="4" ry="2.84564" fill="#6DDCFF"/>
<ellipse cx="1174" cy="12.4028" rx="4" ry="2.84564" fill="#6DDCFF"/>
</g>
<g style="mix-blend-mode:difference">
<ellipse cx="116" cy="105.597" rx="4" ry="2.84564" fill="#6DDCFF"/>
<ellipse cx="139" cy="105.597" rx="4" ry="2.84564" fill="#6DDCFF"/>
<ellipse cx="162" cy="105.597" rx="4" ry="2.84564" fill="#6DDCFF"/>
<ellipse cx="185" cy="105.597" rx="4" ry="2.84564" fill="#6DDCFF"/>
<ellipse cx="208" cy="105.597" rx="4" ry="2.84564" fill="#6DDCFF"/>
<ellipse cx="231" cy="105.597" rx="4" ry="2.84564" fill="#6DDCFF"/>
<ellipse cx="254" cy="105.597" rx="4" ry="2.84564" fill="#6DDCFF"/>
<ellipse cx="277" cy="105.597" rx="4" ry="2.84564" fill="#6DDCFF"/>
<ellipse cx="300" cy="105.597" rx="4" ry="2.84564" fill="#6DDCFF"/>
<ellipse cx="323" cy="105.597" rx="4" ry="2.84564" fill="#6DDCFF"/>
<ellipse cx="346" cy="105.597" rx="4" ry="2.84564" fill="#6DDCFF"/>
<ellipse cx="369" cy="105.597" rx="4" ry="2.84564" fill="#6DDCFF"/>
<ellipse cx="392" cy="105.597" rx="4" ry="2.84564" fill="#6DDCFF"/>
<ellipse cx="415" cy="105.597" rx="4" ry="2.84564" fill="#6DDCFF"/>
<ellipse cx="438" cy="105.597" rx="4" ry="2.84564" fill="#6DDCFF"/>
<ellipse cx="461" cy="105.597" rx="4" ry="2.84564" fill="#6DDCFF"/>
<ellipse cx="484" cy="105.597" rx="4" ry="2.84564" fill="#6DDCFF"/>
<ellipse cx="507" cy="105.597" rx="4" ry="2.84564" fill="#6DDCFF"/>
<ellipse cx="530" cy="105.597" rx="4" ry="2.84564" fill="#6DDCFF"/>
<ellipse cx="553" cy="105.597" rx="4" ry="2.84564" fill="#6DDCFF"/>
<ellipse cx="576" cy="105.597" rx="4" ry="2.84564" fill="#6DDCFF"/>
<ellipse cx="599" cy="105.597" rx="4" ry="2.84564" fill="#6DDCFF"/>
<ellipse cx="622" cy="105.597" rx="4" ry="2.84564" fill="#6DDCFF"/>
<ellipse cx="645" cy="105.597" rx="4" ry="2.84564" fill="#6DDCFF"/>
<ellipse cx="668" cy="105.597" rx="4" ry="2.84564" fill="#6DDCFF"/>
<ellipse cx="691" cy="105.597" rx="4" ry="2.84564" fill="#6DDCFF"/>
<ellipse cx="714" cy="105.597" rx="4" ry="2.84564" fill="#6DDCFF"/>
<ellipse cx="737" cy="105.597" rx="4" ry="2.84564" fill="#6DDCFF"/>
<ellipse cx="760" cy="105.597" rx="4" ry="2.84564" fill="#6DDCFF"/>
<ellipse cx="783" cy="105.597" rx="4" ry="2.84564" fill="#6DDCFF"/>
<ellipse cx="806" cy="105.597" rx="4" ry="2.84564" fill="#6DDCFF"/>
<ellipse cx="829" cy="105.597" rx="4" ry="2.84564" fill="#6DDCFF"/>
<ellipse cx="852" cy="105.597" rx="4" ry="2.84564" fill="#6DDCFF"/>
<ellipse cx="875" cy="105.597" rx="4" ry="2.84564" fill="#6DDCFF"/>
<ellipse cx="898" cy="105.597" rx="4" ry="2.84564" fill="#6DDCFF"/>
<ellipse cx="921" cy="105.597" rx="4" ry="2.84564" fill="#6DDCFF"/>
<ellipse cx="944" cy="105.597" rx="4" ry="2.84564" fill="#6DDCFF"/>
<ellipse cx="967" cy="105.597" rx="4" ry="2.84564" fill="#6DDCFF"/>
<ellipse cx="990" cy="105.597" rx="4" ry="2.84564" fill="#6DDCFF"/>
<ellipse cx="1013" cy="105.597" rx="4" ry="2.84564" fill="#6DDCFF"/>
<ellipse cx="1036" cy="105.597" rx="4" ry="2.84564" fill="#6DDCFF"/>
<ellipse cx="1059" cy="105.597" rx="4" ry="2.84564" fill="#6DDCFF"/>
<ellipse cx="1082" cy="105.597" rx="4" ry="2.84564" fill="#6DDCFF"/>
<ellipse cx="1105" cy="105.597" rx="4" ry="2.84564" fill="#6DDCFF"/>
<ellipse cx="1128" cy="105.597" rx="4" ry="2.84564" fill="#6DDCFF"/>
<ellipse cx="1151" cy="105.597" rx="4" ry="2.84564" fill="#6DDCFF"/>
<ellipse cx="1174" cy="105.597" rx="4" ry="2.84564" fill="#6DDCFF"/>
</g>
<defs>
<filter id="filter0_d_0_1" x="0" y="0" width="1287" height="118" filterUnits="userSpaceOnUse" color-interpolation-filters="sRGB">
<feFlood flood-opacity="0" result="BackgroundImageFix"/>
<feColorMatrix in="SourceAlpha" type="matrix" values="0 0 0 0 0 0 0 0 0 0 0 0 0 0 0 0 0 0 127 0" result="hardAlpha"/>
<feOffset/>
<feGaussianBlur stdDeviation="2"/>
<feColorMatrix type="matrix" values="0 0 0 0 1 0 0 0 0 0.913725 0 0 0 0 0.278431 0 0 0 1 0"/>
<feBlend mode="normal" in2="BackgroundImageFix" result="effect1_dropShadow_0_1"/>
<feBlend mode="normal" in="SourceGraphic" in2="effect1_dropShadow_0_1" result="shape"/>
</filter>
<filter id="filter1_d_0_1" x="1" y="0" width="1285" height="118" filterUnits="userSpaceOnUse" color-interpolation-filters="sRGB">
<feFlood flood-opacity="0" result="BackgroundImageFix"/>
<feColorMatrix in="SourceAlpha" type="matrix" values="0 0 0 0 0 0 0 0 0 0 0 0 0 0 0 0 0 0 127 0" result="hardAlpha"/>
<feMorphology radius="5" operator="dilate" in="SourceAlpha" result="effect1_dropShadow_0_1"/>
<feOffset/>
<feGaussianBlur stdDeviation="3.5"/>
<feColorMatrix type="matrix" values="0 0 0 0 0.984314 0 0 0 0 0.12549 0 0 0 0 1 0 0 0 1 0"/>
<feBlend mode="normal" in2="BackgroundImageFix" result="effect1_dropShadow_0_1"/>
<feBlend mode="normal" in="SourceGraphic" in2="effect1_dropShadow_0_1" result="shape"/>
</filter>
<filter id="filter2_d_0_1" x="18" y="14" width="1251" height="90" filterUnits="userSpaceOnUse" color-interpolation-filters="sRGB">
<feFlood flood-opacity="0" result="BackgroundImageFix"/>
<feColorMatrix in="SourceAlpha" type="matrix" values="0 0 0 0 0 0 0 0 0 0 0 0 0 0 0 0 0 0 127 0" result="hardAlpha"/>
<feOffset/>
<feGaussianBlur stdDeviation="2"/>
<feColorMatrix type="matrix" values="0 0 0 0 1 0 0 0 0 0.913725 0 0 0 0 0.278431 0 0 0 1 0"/>
<feBlend mode="normal" in2="BackgroundImageFix" result="effect1_dropShadow_0_1"/>
<feBlend mode="normal" in="SourceGraphic" in2="effect1_dropShadow_0_1" result="shape"/>
</filter>
</defs>
</svg>
