<svg width="568" height="460" viewBox="0 0 568 460" fill="none" xmlns="http://www.w3.org/2000/svg">
<g filter="url(#filter0_d_138_4541)">
<rect x="14" y="14" width="540" height="432" stroke="#FF00F5" stroke-width="2"/>
</g>
<g style="mix-blend-mode:luminosity" filter="url(#filter1_d_138_4541)">
<circle cx="14" cy="446" r="4" fill="#6DDCFF"/>
<circle cx="554" cy="446" r="4" fill="#6DDCFF"/>
<circle cx="32" cy="446" r="4" transform="rotate(90 32 446)" fill="#6DDCFF"/>
<circle cx="32" cy="14" r="4" transform="rotate(90 32 14)" fill="#6DDCFF"/>
<circle cx="14" cy="428" r="4" fill="#6DDCFF"/>
<circle cx="554" cy="428" r="4" fill="#6DDCFF"/>
<circle cx="50" cy="446" r="4" transform="rotate(90 50 446)" fill="#6DDCFF"/>
<circle cx="50" cy="14" r="4" transform="rotate(90 50 14)" fill="#6DDCFF"/>
<circle cx="14" cy="410" r="4" fill="#6DDCFF"/>
<circle cx="554" cy="410" r="4" fill="#6DDCFF"/>
<circle cx="68" cy="446" r="4" transform="rotate(90 68 446)" fill="#6DDCFF"/>
<circle cx="68" cy="14" r="4" transform="rotate(90 68 14)" fill="#6DDCFF"/>
<circle cx="14" cy="392" r="4" fill="#6DDCFF"/>
<circle cx="554" cy="392" r="4" fill="#6DDCFF"/>
<circle cx="86" cy="446" r="4" transform="rotate(90 86 446)" fill="#6DDCFF"/>
<circle cx="86" cy="14" r="4" transform="rotate(90 86 14)" fill="#6DDCFF"/>
<circle cx="14" cy="374" r="4" fill="#6DDCFF"/>
<circle cx="554" cy="374" r="4" fill="#6DDCFF"/>
<circle cx="104" cy="446" r="4" transform="rotate(90 104 446)" fill="#6DDCFF"/>
<circle cx="104" cy="14" r="4" transform="rotate(90 104 14)" fill="#6DDCFF"/>
<circle cx="14" cy="356" r="4" fill="#6DDCFF"/>
<circle cx="554" cy="356" r="4" fill="#6DDCFF"/>
<circle cx="122" cy="446" r="4" transform="rotate(90 122 446)" fill="#6DDCFF"/>
<circle cx="122" cy="14" r="4" transform="rotate(90 122 14)" fill="#6DDCFF"/>
<circle cx="14" cy="338" r="4" fill="#6DDCFF"/>
<circle cx="554" cy="338" r="4" fill="#6DDCFF"/>
<circle cx="140" cy="446" r="4" transform="rotate(90 140 446)" fill="#6DDCFF"/>
<circle cx="140" cy="14" r="4" transform="rotate(90 140 14)" fill="#6DDCFF"/>
<circle cx="14" cy="320" r="4" fill="#6DDCFF"/>
<circle cx="554" cy="320" r="4" fill="#6DDCFF"/>
<circle cx="158" cy="446" r="4" transform="rotate(90 158 446)" fill="#6DDCFF"/>
<circle cx="158" cy="14" r="4" transform="rotate(90 158 14)" fill="#6DDCFF"/>
<circle cx="14" cy="302" r="4" fill="#6DDCFF"/>
<circle cx="554" cy="302" r="4" fill="#6DDCFF"/>
<circle cx="176" cy="446" r="4" transform="rotate(90 176 446)" fill="#6DDCFF"/>
<circle cx="176" cy="14" r="4" transform="rotate(90 176 14)" fill="#6DDCFF"/>
<circle cx="14" cy="284" r="4" fill="#6DDCFF"/>
<circle cx="554" cy="284" r="4" fill="#6DDCFF"/>
<circle cx="194" cy="446" r="4" transform="rotate(90 194 446)" fill="#6DDCFF"/>
<circle cx="194" cy="14" r="4" transform="rotate(90 194 14)" fill="#6DDCFF"/>
<circle cx="14" cy="266" r="4" fill="#6DDCFF"/>
<circle cx="554" cy="266" r="4" fill="#6DDCFF"/>
<circle cx="212" cy="446" r="4" transform="rotate(90 212 446)" fill="#6DDCFF"/>
<circle cx="212" cy="14" r="4" transform="rotate(90 212 14)" fill="#6DDCFF"/>
<circle cx="14" cy="248" r="4" fill="#6DDCFF"/>
<circle cx="554" cy="248" r="4" fill="#6DDCFF"/>
<circle cx="230" cy="446" r="4" transform="rotate(90 230 446)" fill="#6DDCFF"/>
<circle cx="230" cy="14" r="4" transform="rotate(90 230 14)" fill="#6DDCFF"/>
<circle cx="14" cy="230" r="4" fill="#6DDCFF"/>
<circle cx="554" cy="230" r="4" fill="#6DDCFF"/>
<circle cx="248" cy="446" r="4" transform="rotate(90 248 446)" fill="#6DDCFF"/>
<circle cx="248" cy="14" r="4" transform="rotate(90 248 14)" fill="#6DDCFF"/>
<circle cx="14" cy="212" r="4" fill="#6DDCFF"/>
<circle cx="554" cy="212" r="4" fill="#6DDCFF"/>
<circle cx="266" cy="446" r="4" transform="rotate(90 266 446)" fill="#6DDCFF"/>
<circle cx="266" cy="14" r="4" transform="rotate(90 266 14)" fill="#6DDCFF"/>
<circle cx="14" cy="194" r="4" fill="#6DDCFF"/>
<circle cx="554" cy="194" r="4" fill="#6DDCFF"/>
<circle cx="284" cy="446" r="4" transform="rotate(90 284 446)" fill="#6DDCFF"/>
<circle cx="284" cy="14" r="4" transform="rotate(90 284 14)" fill="#6DDCFF"/>
<circle cx="14" cy="176" r="4" fill="#6DDCFF"/>
<circle cx="554" cy="176" r="4" fill="#6DDCFF"/>
<circle cx="302" cy="446" r="4" transform="rotate(90 302 446)" fill="#6DDCFF"/>
<circle cx="302" cy="14" r="4" transform="rotate(90 302 14)" fill="#6DDCFF"/>
<circle cx="14" cy="158" r="4" fill="#6DDCFF"/>
<circle cx="554" cy="158" r="4" fill="#6DDCFF"/>
<circle cx="320" cy="446" r="4" transform="rotate(90 320 446)" fill="#6DDCFF"/>
<circle cx="320" cy="14" r="4" transform="rotate(90 320 14)" fill="#6DDCFF"/>
<circle cx="14" cy="140" r="4" fill="#6DDCFF"/>
<circle cx="554" cy="140" r="4" fill="#6DDCFF"/>
<circle cx="338" cy="446" r="4" transform="rotate(90 338 446)" fill="#6DDCFF"/>
<circle cx="338" cy="14" r="4" transform="rotate(90 338 14)" fill="#6DDCFF"/>
<circle cx="14" cy="122" r="4" fill="#6DDCFF"/>
<circle cx="554" cy="122" r="4" fill="#6DDCFF"/>
<circle cx="356" cy="446" r="4" transform="rotate(90 356 446)" fill="#6DDCFF"/>
<circle cx="356" cy="14" r="4" transform="rotate(90 356 14)" fill="#6DDCFF"/>
<circle cx="14" cy="104" r="4" fill="#6DDCFF"/>
<circle cx="554" cy="104" r="4" fill="#6DDCFF"/>
<circle cx="374" cy="446" r="4" transform="rotate(90 374 446)" fill="#6DDCFF"/>
<circle cx="374" cy="14" r="4" transform="rotate(90 374 14)" fill="#6DDCFF"/>
<circle cx="14" cy="86" r="4" fill="#6DDCFF"/>
<circle cx="554" cy="86" r="4" fill="#6DDCFF"/>
<circle cx="392" cy="446" r="4" transform="rotate(90 392 446)" fill="#6DDCFF"/>
<circle cx="392" cy="14" r="4" transform="rotate(90 392 14)" fill="#6DDCFF"/>
<circle cx="482" cy="446" r="4" transform="rotate(90 482 446)" fill="#6DDCFF"/>
<circle cx="482" cy="14" r="4" transform="rotate(90 482 14)" fill="#6DDCFF"/>
<circle cx="14" cy="68" r="4" fill="#6DDCFF"/>
<circle cx="554" cy="68" r="4" fill="#6DDCFF"/>
<circle cx="410" cy="446" r="4" transform="rotate(90 410 446)" fill="#6DDCFF"/>
<circle cx="410" cy="14" r="4" transform="rotate(90 410 14)" fill="#6DDCFF"/>
<circle cx="500" cy="446" r="4" transform="rotate(90 500 446)" fill="#6DDCFF"/>
<circle cx="500" cy="14" r="4" transform="rotate(90 500 14)" fill="#6DDCFF"/>
<circle cx="14" cy="50" r="4" fill="#6DDCFF"/>
<circle cx="554" cy="50" r="4" fill="#6DDCFF"/>
<circle cx="428" cy="446" r="4" transform="rotate(90 428 446)" fill="#6DDCFF"/>
<circle cx="428" cy="14" r="4" transform="rotate(90 428 14)" fill="#6DDCFF"/>
<circle cx="518" cy="446" r="4" transform="rotate(90 518 446)" fill="#6DDCFF"/>
<circle cx="518" cy="14" r="4" transform="rotate(90 518 14)" fill="#6DDCFF"/>
<circle cx="14" cy="32" r="4" fill="#6DDCFF"/>
<circle cx="554" cy="32" r="4" fill="#6DDCFF"/>
<circle cx="446" cy="446" r="4" transform="rotate(90 446 446)" fill="#6DDCFF"/>
<circle cx="446" cy="14" r="4" transform="rotate(90 446 14)" fill="#6DDCFF"/>
<circle cx="536" cy="446" r="4" transform="rotate(90 536 446)" fill="#6DDCFF"/>
<circle cx="536" cy="14" r="4" transform="rotate(90 536 14)" fill="#6DDCFF"/>
<circle cx="14" cy="14" r="4" fill="#6DDCFF"/>
<circle cx="554" cy="14" r="4" fill="#6DDCFF"/>
<circle cx="464" cy="446" r="4" transform="rotate(90 464 446)" fill="#6DDCFF"/>
<circle cx="464" cy="14" r="4" transform="rotate(90 464 14)" fill="#6DDCFF"/>
</g>
<defs>
<filter id="filter0_d_138_4541" x="5" y="5" width="558" height="450" filterUnits="userSpaceOnUse" color-interpolation-filters="sRGB">
<feFlood flood-opacity="0" result="BackgroundImageFix"/>
<feColorMatrix in="SourceAlpha" type="matrix" values="0 0 0 0 0 0 0 0 0 0 0 0 0 0 0 0 0 0 127 0" result="hardAlpha"/>
<feMorphology radius="1" operator="dilate" in="SourceAlpha" result="effect1_dropShadow_138_4541"/>
<feOffset/>
<feGaussianBlur stdDeviation="3.5"/>
<feColorMatrix type="matrix" values="0 0 0 0 1 0 0 0 0 0 0 0 0 0 0.78 0 0 0 1 0"/>
<feBlend mode="normal" in2="BackgroundImageFix" result="effect1_dropShadow_138_4541"/>
<feBlend mode="normal" in="SourceGraphic" in2="effect1_dropShadow_138_4541" result="shape"/>
</filter>
<filter id="filter1_d_138_4541" x="0" y="0" width="568" height="460" filterUnits="userSpaceOnUse" color-interpolation-filters="sRGB">
<feFlood flood-opacity="0" result="BackgroundImageFix"/>
<feColorMatrix in="SourceAlpha" type="matrix" values="0 0 0 0 0 0 0 0 0 0 0 0 0 0 0 0 0 0 127 0" result="hardAlpha"/>
<feOffset/>
<feGaussianBlur stdDeviation="5"/>
<feComposite in2="hardAlpha" operator="out"/>
<feColorMatrix type="matrix" values="0 0 0 0 1 0 0 0 0 0 0 0 0 0 0.78 0 0 0 0.5 0"/>
<feBlend mode="normal" in2="BackgroundImageFix" result="effect1_dropShadow_138_4541"/>
<feBlend mode="normal" in="SourceGraphic" in2="effect1_dropShadow_138_4541" result="shape"/>
</filter>
</defs>
</svg>
