<svg width="30" height="30" viewBox="0 0 30 30" fill="none" xmlns="http://www.w3.org/2000/svg">
<path d="M15 2C11.553 2 8.24406 3.37048 5.80859 5.80758C3.37061 8.24564 2.00068 11.5521 2 15C2 18.4464 3.37109 21.7553 5.80859 24.1924C8.24406 26.6295 11.553 28 15 28C18.447 28 21.7559 26.6295 24.1914 24.1924C26.6289 21.7553 28 18.4464 28 15C28 11.5536 26.6289 8.24467 24.1914 5.80758C21.7559 3.37048 18.447 2 15 2Z" fill="url(#paint0_linear_1858_3733)"/>
<path d="M6.79005 14.8416C11.1635 12.9366 14.0791 11.6805 15.5369 11.0737C19.7041 9.34101 20.569 9.04008 21.1338 9.02988C21.258 9.02789 21.5346 9.05859 21.715 9.20449C21.865 9.32754 21.9072 9.49394 21.9283 9.61078C21.9471 9.7275 21.9729 9.99351 21.9518 10.2012C21.7268 12.573 20.7494 18.3288 20.2526 20.9855C20.044 22.1095 19.6291 22.4864 19.2283 22.5232C18.3565 22.6034 17.6955 21.9476 16.8518 21.3947C15.5322 20.5291 14.7869 19.9905 13.5049 19.1461C12.0236 18.1702 12.9846 17.6337 13.8283 16.7571C14.0486 16.5277 17.8877 13.0366 17.9604 12.72C17.9697 12.6804 17.9791 12.5327 17.89 12.4549C17.8033 12.3769 17.6744 12.4036 17.5807 12.4247C17.4471 12.4547 15.34 13.8487 11.2525 16.6066C10.6549 17.0177 10.1135 17.2181 9.62599 17.2076C9.09161 17.1961 8.06036 16.9048 7.29396 16.6559C6.35646 16.3505 5.6088 16.189 5.67442 15.6703C5.70724 15.4003 6.07989 15.124 6.79005 14.8416Z" fill="white"/>
<defs>
<linearGradient id="paint0_linear_1858_3733" x1="1302" y1="2" x2="1302" y2="2602" gradientUnits="userSpaceOnUse">
<stop stop-color="#2AABEE"/>
<stop offset="1" stop-color="#229ED9"/>
</linearGradient>
</defs>
</svg>
