<svg width="32" height="34" viewBox="0 0 32 34" fill="none" xmlns="http://www.w3.org/2000/svg">
<path d="M31.7422 11.9752C31.7422 5.37207 26.3701 0 19.7669 0C13.5667 0 8.45212 4.73669 7.85108 10.7815C3.27369 12.4658 0 16.8701 0 22.0248C0 28.6279 5.37207 34 11.9753 34C18.1756 34 23.2901 29.2633 23.8912 23.2185C28.4685 21.5341 31.7422 17.1299 31.7422 11.9752ZM23.9112 21.0565C23.8398 20.1685 23.6715 19.3075 23.4162 18.4842C23.4435 18.4682 23.8729 18.2266 24.076 18.117C25.0103 17.6127 26.0692 17.0412 26.6877 15.9721C27.2952 14.9222 27.2647 13.7065 27.2377 12.634C27.232 12.4054 27.2266 12.1895 27.2266 11.9752C27.2266 11.761 27.232 11.5451 27.2377 11.3165C27.2646 10.2439 27.2952 9.0282 26.6877 7.97831C26.0692 6.90924 25.0102 6.33768 24.0759 5.83339C23.8728 5.72382 23.6811 5.62029 23.4978 5.51424C23.3176 5.40998 23.133 5.29457 22.9376 5.17238C22.0467 4.61557 21.0371 3.98438 19.7669 3.98438C18.4968 3.98438 17.4872 4.61557 16.5964 5.17252C16.4009 5.2947 16.2163 5.41012 16.0362 5.51438C15.8528 5.62043 15.6611 5.72389 15.4581 5.83352C14.5238 6.33781 13.4647 6.90937 12.8462 7.97845C12.4686 8.63102 12.3378 9.34761 12.299 10.054C12.1915 10.0511 12.0836 10.0495 11.9754 10.0495C11.281 10.0495 10.6004 10.1096 9.93796 10.2237C10.7683 5.55123 14.8597 1.99219 19.7669 1.99219C25.2716 1.99219 29.75 6.47056 29.75 11.9752C29.75 16.0022 27.3531 19.4795 23.9112 21.0565ZM11.9753 32.0078C6.47056 32.0078 1.99219 27.5294 1.99219 22.0248C1.99219 16.5201 6.47056 12.0417 11.9753 12.0417C17.48 12.0417 21.9584 16.5201 21.9584 22.0248C21.9584 27.5294 17.48 32.0078 11.9753 32.0078ZM25.2462 12.684C25.2684 13.572 25.2895 14.4108 24.9634 14.9745C24.627 15.5557 23.8997 15.9483 23.1297 16.3639C22.9754 16.4472 22.8176 16.5336 22.6605 16.6217C21.0173 13.3854 17.9467 10.9915 14.2827 10.2734C14.3012 9.77214 14.3703 9.32211 14.5705 8.976C14.9069 8.39475 15.6342 8.00215 16.4042 7.58658C16.6111 7.47495 16.825 7.35954 17.0337 7.23868C17.2434 7.11736 17.4514 6.9874 17.6524 6.86169C18.3806 6.40654 19.0684 5.97656 19.7669 5.97656C20.4656 5.97656 21.1533 6.40654 21.8815 6.86176C22.0825 6.98746 22.2904 7.11742 22.5001 7.23875C22.7089 7.35961 22.9228 7.47502 23.1296 7.58665C23.8997 8.00229 24.627 8.39481 24.9633 8.97607C25.2894 9.53979 25.2684 10.3786 25.2461 11.2666C25.2403 11.4974 25.2343 11.7361 25.2343 11.9753C25.2344 12.2145 25.2404 12.4532 25.2462 12.684Z" fill="#FFE300"/>
<path d="M20.896 9.91663H22.8882V11.9088H20.896V9.91663Z" fill="#FFE300"/>
<path d="M19.9662 22.0247C19.9662 20.7546 19.335 19.745 18.7781 18.8542C18.6559 18.6588 18.5405 18.4742 18.4362 18.2939C18.3302 18.1106 18.2267 17.9189 18.1172 17.7159C17.6128 16.7815 17.0412 15.7224 15.9721 15.1039C14.9221 14.4964 13.7066 14.5269 12.6339 14.5539C12.1768 14.5654 11.7736 14.5654 11.3166 14.5539C10.244 14.527 9.0282 14.4965 7.97831 15.1039C6.90917 15.7224 6.33768 16.7814 5.83339 17.7157C5.72382 17.9187 5.62029 18.1105 5.51424 18.2938C5.40998 18.474 5.29457 18.6586 5.17245 18.8539C4.61563 19.7448 3.98438 20.7546 3.98438 22.0247C3.98438 23.2949 4.61563 24.3046 5.17258 25.1954C5.29477 25.3908 5.41012 25.5754 5.51438 25.7555C5.62049 25.9389 5.72395 26.1307 5.83352 26.3337C6.33781 27.268 6.90937 28.327 7.97845 28.9456C8.80739 29.4252 9.73961 29.507 10.6232 29.507C10.8588 29.507 11.0909 29.5013 11.3166 29.4955C11.7738 29.4841 12.1768 29.4841 12.634 29.4955C13.7065 29.5224 14.9222 29.5529 15.9722 28.9456C17.0413 28.3271 17.6129 27.268 18.1172 26.3337C18.2267 26.1307 18.3302 25.9389 18.4363 25.7556C18.5406 25.5754 18.656 25.3908 18.7782 25.1953C19.335 24.3044 19.9662 23.2948 19.9662 22.0247ZM16.7119 24.7579C16.5911 24.9667 16.4756 25.1805 16.364 25.3873C15.9483 26.1574 15.5558 26.8848 14.9745 27.2211C14.4108 27.5472 13.5721 27.5261 12.6839 27.5039C12.4531 27.4981 12.2145 27.4921 11.9753 27.4921C11.7361 27.4921 11.4975 27.4981 11.2667 27.5039C10.3785 27.5261 9.53979 27.5472 8.97607 27.2211C8.39481 26.8848 8.00229 26.1574 7.58665 25.3875C7.47502 25.1806 7.35954 24.9667 7.23875 24.7578C7.11742 24.5481 6.98746 24.3402 6.86182 24.1393C6.40661 23.4111 5.97656 22.7234 5.97656 22.0247C5.97656 21.326 6.40654 20.6383 6.86176 19.9101C6.98746 19.7091 7.11742 19.5013 7.23875 19.2916C7.35954 19.0827 7.47502 18.8688 7.58665 18.662C8.00222 17.892 8.39481 17.1646 8.97607 16.8283C9.53986 16.5021 10.3786 16.5232 11.2666 16.5455C11.7282 16.5571 12.2224 16.5571 12.684 16.5455C13.572 16.5233 14.4107 16.5022 14.9745 16.8283C15.5558 17.1647 15.9484 17.8921 16.364 18.6622C16.4757 18.8689 16.5911 19.0828 16.7119 19.2916C16.8332 19.5013 16.9631 19.7093 17.0889 19.9103C17.5441 20.6383 17.974 21.3261 17.974 22.0247C17.974 22.7233 17.544 23.4111 17.0889 24.1392C16.9631 24.3402 16.8332 24.5481 16.7119 24.7579Z" fill="#FFE300"/>
<path d="M9.9165 18.9037H11.9087V20.8959H9.9165V18.9037Z" fill="#FFE300"/>
<path d="M12.0415 23.1537H14.0337V25.1459H12.0415V23.1537Z" fill="#FFE300"/>
</svg>
