<svg width="413" height="73" viewBox="0 0 413 73" fill="none" xmlns="http://www.w3.org/2000/svg">
<path d="M11.4831 14.2918C14.0081 5.81265 21.8041 0 30.6512 0H382.349C391.196 0 398.992 5.81266 401.517 14.2918L411.344 47.2918C415.163 60.1156 405.556 73 392.176 73H20.8239C7.44356 73 -2.16308 60.1156 1.65581 47.2918L11.4831 14.2918Z" fill="url(#paint0_linear_1164_1394)"/>
<g filter="url(#filter0_d_1164_1394)">
<path d="M113.652 48L100.296 48.324L98.6039 24.6L107.172 24.06L104.58 45.408L113.796 44.292L113.652 48ZM125.744 48.864C123.608 48.864 121.832 48.204 120.416 46.884C119.024 45.564 118.172 43.452 117.86 40.548L116.132 24.6L124.7 24.06C123.716 35.628 123.224 41.592 123.224 41.952C123.224 44.688 124.532 46.056 127.148 46.056C128.348 46.056 129.368 45.696 130.208 44.976C131.048 44.232 131.48 42.948 131.504 41.124L131.828 24.42L135.428 24.24L134.348 41.16C134.036 46.296 131.168 48.864 125.744 48.864ZM139.578 47.532L146.562 36.372L140.298 25.068L148.614 24.06L151.782 32.952L155.886 24.06L160.026 25.032L153.042 36.156L160.134 47.46L151.818 48.504L147.93 39.396L143.718 48.54L139.578 47.532ZM163.189 41.88C163.189 39.408 164.305 37.416 166.537 35.904C166.201 35.808 165.961 35.724 165.817 35.652C164.473 33.9 163.801 32.136 163.801 30.36C163.801 26.16 166.573 24.06 172.117 24.06C174.493 24.06 176.725 24.444 178.813 25.212C180.157 26.964 180.829 28.728 180.829 30.504C180.829 32.664 179.857 34.452 177.913 35.868L179.281 36.336C180.721 38.184 181.441 40.092 181.441 42.06C181.441 46.596 178.465 48.864 172.513 48.864C169.921 48.864 167.533 48.444 165.349 47.604C163.909 45.756 163.189 43.848 163.189 41.88ZM169.165 42.672C169.165 43.8 169.357 44.784 169.741 45.624C170.605 46.248 171.625 46.56 172.801 46.56C174.385 45.288 175.177 43.668 175.177 41.7C175.177 39.732 174.697 38.172 173.737 37.02C173.137 36.924 172.453 36.876 171.685 36.876C170.005 38.22 169.165 40.152 169.165 42.672ZM175.609 29.856C175.609 28.92 175.417 28.044 175.033 27.228C174.121 26.676 173.041 26.4 171.793 26.4C170.113 27.552 169.273 29.052 169.273 30.9C169.273 31.596 169.405 32.316 169.669 33.06C169.957 33.804 170.341 34.404 170.821 34.86C171.469 34.956 172.189 35.004 172.981 35.004C174.733 33.78 175.609 32.064 175.609 29.856ZM185.408 41.88C185.408 39.408 186.524 37.416 188.756 35.904C188.42 35.808 188.18 35.724 188.036 35.652C186.692 33.9 186.02 32.136 186.02 30.36C186.02 26.16 188.792 24.06 194.336 24.06C196.712 24.06 198.944 24.444 201.032 25.212C202.376 26.964 203.048 28.728 203.048 30.504C203.048 32.664 202.076 34.452 200.132 35.868L201.5 36.336C202.94 38.184 203.66 40.092 203.66 42.06C203.66 46.596 200.684 48.864 194.732 48.864C192.14 48.864 189.752 48.444 187.568 47.604C186.128 45.756 185.408 43.848 185.408 41.88ZM191.384 42.672C191.384 43.8 191.576 44.784 191.96 45.624C192.824 46.248 193.844 46.56 195.02 46.56C196.604 45.288 197.396 43.668 197.396 41.7C197.396 39.732 196.916 38.172 195.956 37.02C195.356 36.924 194.672 36.876 193.904 36.876C192.224 38.22 191.384 40.152 191.384 42.672ZM197.828 29.856C197.828 28.92 197.636 28.044 197.252 27.228C196.34 26.676 195.26 26.4 194.012 26.4C192.332 27.552 191.492 29.052 191.492 30.9C191.492 31.596 191.624 32.316 191.888 33.06C192.176 33.804 192.56 34.404 193.04 34.86C193.688 34.956 194.408 35.004 195.2 35.004C196.952 33.78 197.828 32.064 197.828 29.856ZM217.879 24.564L236.275 24.06L236.167 26.472L231.127 26.976L228.895 48.144L224.935 48.504L223.135 27.768L218.095 28.272L217.879 24.564ZM256.234 40.548C256.234 42.012 256.114 43.236 255.874 44.22C255.634 45.18 255.202 46.032 254.578 46.776C253.378 48.168 251.05 48.864 247.594 48.864C244.162 48.864 241.498 48.084 239.602 46.524C239.194 44.508 238.99 42.516 238.99 40.548C238.99 36.564 239.734 33 241.222 29.856C242.734 26.712 244.486 24.48 246.478 23.16C249.286 24.312 251.614 26.472 253.462 29.64C255.31 32.784 256.234 36.42 256.234 40.548ZM251.878 38.928C251.878 35.232 251.266 32.064 250.042 29.424C247.714 31.56 245.89 34.032 244.57 36.84C243.274 39.648 242.626 42.408 242.626 45.12C243.442 45.288 244.414 45.372 245.542 45.372C247.75 45.372 249.646 45.096 251.23 44.544C251.662 42.672 251.878 40.8 251.878 38.928ZM269.909 48.504C268.061 48.504 266.345 48.288 264.761 47.856C263.201 47.424 262.001 46.86 261.161 46.164C260.753 44.244 260.549 42.252 260.549 40.188C260.549 36.66 261.161 33.348 262.385 30.252C263.609 27.132 265.493 24.648 268.037 22.8L274.985 27.192C271.673 29.304 269.045 31.992 267.101 35.256C265.157 38.52 264.185 41.808 264.185 45.12C265.505 45.384 266.801 45.516 268.073 45.516C269.369 45.516 270.533 45.396 271.565 45.156L270.845 37.272L277.685 36.84L275.525 49.512L271.997 49.8L271.853 48.396C271.205 48.468 270.557 48.504 269.909 48.504ZM297.887 48L283.811 48.324L282.119 24.6L297.995 24.096L297.887 26.508L290.291 27.408L289.355 34.86L297.023 34.788L297.203 38.028L289.067 37.416L288.095 45.444L298.031 44.292L297.887 48ZM318.964 48L305.608 48.324L303.916 24.6L312.484 24.06L309.892 45.408L319.108 44.292L318.964 48Z" fill="white"/>
</g>
<defs>
<filter id="filter0_d_1164_1394" x="94.604" y="22.8" width="228.504" height="35" filterUnits="userSpaceOnUse" color-interpolation-filters="sRGB">
<feFlood flood-opacity="0" result="BackgroundImageFix"/>
<feColorMatrix in="SourceAlpha" type="matrix" values="0 0 0 0 0 0 0 0 0 0 0 0 0 0 0 0 0 0 127 0" result="hardAlpha"/>
<feOffset dy="4"/>
<feGaussianBlur stdDeviation="2"/>
<feComposite in2="hardAlpha" operator="out"/>
<feColorMatrix type="matrix" values="0 0 0 0 0 0 0 0 0 0 0 0 0 0 0 0 0 0 0.25 0"/>
<feBlend mode="normal" in2="BackgroundImageFix" result="effect1_dropShadow_1164_1394"/>
<feBlend mode="normal" in="SourceGraphic" in2="effect1_dropShadow_1164_1394" result="shape"/>
</filter>
<linearGradient id="paint0_linear_1164_1394" x1="206.5" y1="0" x2="206.5" y2="73" gradientUnits="userSpaceOnUse">
<stop stop-color="#71BEF5"/>
<stop offset="1" stop-color="#009BDD"/>
</linearGradient>
</defs>
</svg>
