<svg width="35" height="26" viewBox="0 0 35 26" fill="none" xmlns="http://www.w3.org/2000/svg">
                                    <path d="M27.5 15.5C28.3854 15.5 29.2188 15.3438 30 15.0312V15.5C29.9479 16.9062 29.4531 18.0781 28.5156 19.0156C27.5781 19.9531 26.4062 20.4479 25 20.5C24.2708 20.5 23.6719 20.7344 23.2031 21.2031C22.7344 21.6719 22.5 22.2708 22.5 23C22.5 23.7292 22.7344 24.3281 23.2031 24.7969C23.6719 25.2656 24.2708 25.5 25 25.5C27.8125 25.4479 30.1562 24.4583 32.0312 22.5312C33.9583 20.6562 34.9479 18.3125 35 15.5V8C34.9479 5.86458 34.2188 4.09375 32.8125 2.6875C31.4062 1.28125 29.6354 0.552083 27.5 0.5C25.3646 0.552083 23.5938 1.28125 22.1875 2.6875C20.7812 4.09375 20.0521 5.86458 20 8C20.0521 10.1354 20.7812 11.9062 22.1875 13.3125C23.5938 14.7188 25.3646 15.4479 27.5 15.5ZM7.5 15.5C8.38542 15.5 9.21875 15.3438 10 15.0312V15.5C9.94792 16.9062 9.45312 18.0781 8.51562 19.0156C7.57812 19.9531 6.40625 20.4479 5 20.5C4.27083 20.5 3.67188 20.7344 3.20312 21.2031C2.73438 21.6719 2.5 22.2708 2.5 23C2.5 23.7292 2.73438 24.3281 3.20312 24.7969C3.67188 25.2656 4.27083 25.5 5 25.5C7.8125 25.4479 10.1562 24.4583 12.0312 22.5312C13.9583 20.6562 14.9479 18.3125 15 15.5V8C14.9479 5.86458 14.2188 4.09375 12.8125 2.6875C11.4062 1.28125 9.63542 0.552083 7.5 0.5C5.36458 0.552083 3.59375 1.28125 2.1875 2.6875C0.78125 4.09375 0.0520833 5.86458 0 8C0.0520833 10.1354 0.78125 11.9062 2.1875 13.3125C3.59375 14.7188 5.36458 15.4479 7.5 15.5Z" fill="#7CB342"></path>
                                </svg>